<?xml version="1.0" encoding="UTF-8"?>
<svg id="android-white" viewBox="0 0 20 24" version="1.1" xmlns="http://www.w3.org/2000/svg" xmlns:xlink="http://www.w3.org/1999/xlink">
    <!--  51.2 (57519) -  -->
    <title>android</title>
    <desc>By RummyCulture.</desc>
    <defs></defs>
    <g stroke="none" stroke-width="1" fill="none" fill-rule="evenodd">
        <g id="download-app" transform="translate(-16.000000, -8.000000)" fill="#fff" fill-rule="nonzero">
            <g id="Group-2-Copy">
                <g id="android" transform="translate(16.000000, 8.000000)">
                    <path d="M15.9778477,7.90695652 L3.99100164,7.90695652 C3.7243591,7.90695652 3.50821964,8.12602899 3.50821964,8.39628986 L3.50821964,18.5846377 C3.50821964,18.8548986 3.7243591,19.073971 3.99100164,19.073971 L6.12797399,19.073971 L6.12797399,22.5074783 C6.12797399,23.3041159 6.76512497,23.949971 7.55115423,23.949971 C8.33712629,23.949971 8.97433447,23.3041739 8.97433447,22.5074783 L8.97433447,19.073971 L10.9648879,19.073971 L10.9648879,22.5074783 C10.9648879,23.3041159 11.6020389,23.949971 12.3880682,23.949971 C13.1740402,23.949971 13.8112484,23.3041739 13.8112484,22.5074783 L13.8112484,19.073971 L15.9779049,19.073971 C16.2445474,19.073971 16.4606869,18.8548986 16.4606869,18.5846377 L16.4606869,8.39628986 C16.4606297,8.12602899 16.2444902,7.90695652 15.9778477,7.90695652 Z" id="Shape"></path>
                    <path d="M1.47883086,7.90457971 C0.692858795,7.90457971 0.0556506197,8.55037681 0.0556506197,9.34707246 L0.0556506197,15.205913 C0.0556506197,16.0025507 0.6928016,16.6484058 1.47883086,16.6484058 C2.26480292,16.6484058 2.90201109,16.0026087 2.90201109,15.205913 L2.90201109,9.34707246 C2.9019539,8.55043478 2.26480292,7.90457971 1.47883086,7.90457971 Z" id="Shape"></path>
                    <path d="M18.4900185,7.90457971 C17.7040464,7.90457971 17.0668383,8.55037681 17.0668383,9.34707246 L17.0668383,15.205913 C17.0668383,16.0025507 17.7039892,16.6484058 18.4900185,16.6484058 C19.2759905,16.6484058 19.9131987,16.0026087 19.9131987,15.205913 L19.9131987,9.34707246 C19.9131987,8.55043478 19.2760477,7.90457971 18.4900185,7.90457971 Z" id="Shape"></path>
                    <path d="M4.08800416,7.1924058 L15.8525337,7.1924058 C16.1594415,7.1924058 16.3883354,6.90585507 16.3253066,6.6013913 C15.9361526,4.72150725 14.7553071,3.13727536 13.1529925,2.22208696 L14.1587073,0.38284058 C14.2267692,0.258318841 14.182386,0.101391304 14.0595314,0.0324057971 C13.9363908,-0.0367536232 13.781793,0.0084057971 13.7137311,0.132927536 L12.7004094,1.98602899 C11.8704545,1.59565217 10.9454989,1.37762319 9.97026894,1.37762319 C8.99498182,1.37762319 8.0700262,1.59565217 7.24007127,1.98602899 L6.22674955,0.132869565 C6.15863045,0.00828985507 6.00380391,-0.0366376812 5.8810065,0.0323478261 C5.75815189,0.101333333 5.71376866,0.25826087 5.78183057,0.382782609 L6.78754537,2.22202899 C5.18523076,3.13727536 4.00438524,4.72144928 3.61523127,6.6013913 C3.55214531,6.90585507 3.78103923,7.1924058 4.08800416,7.1924058 Z M13.480662,4.45136232 C13.480662,4.75756522 13.2357535,5.00585507 12.9335929,5.00585507 C12.6314896,5.00585507 12.3865239,4.75762319 12.3865239,4.45136232 C12.3865239,4.14515942 12.6314324,3.89686957 12.9335929,3.89686957 C13.2357535,3.89686957 13.480662,4.14515942 13.480662,4.45136232 Z M7.00683054,3.89686957 C7.30893391,3.89686957 7.55389959,4.14510145 7.55389959,4.45136232 C7.55389959,4.75756522 7.3089911,5.00585507 7.00683054,5.00585507 C6.70472718,5.00585507 6.4597615,4.75762319 6.4597615,4.45136232 C6.4597615,4.14515942 6.70466998,3.89686957 7.00683054,3.89686957 Z" id="Shape"></path>
                </g>
            </g>
        </g>
    </g>
</svg>
