<?xml version="1.0" encoding="UTF-8"?>
<svg id="play" viewBox="0 0 39 39" version="1.1" xmlns="http://www.w3.org/2000/svg" xmlns:xlink="http://www.w3.org/1999/xlink">
    <!--  51.2 (57519) -  -->
    <title>play</title>
    <desc>By RummyCulture.</desc>
    <defs></defs>
    <g id="play" stroke="none" stroke-width="1" fill="none" fill-rule="evenodd">
        <path d="M19.2000003,0 C8.59627513,0 0,8.59612513 0,19.2000003 C0,29.8038754 8.59627513,38.4000006 19.2000003,38.4000006 C29.8037254,38.4000006 38.4000006,29.8038754 38.4000006,19.2000003 C38.4000006,8.59612513 29.8037254,0 19.2000003,0 Z M25.8360004,20.2177503 L16.2360002,26.2177504 C16.0417502,26.3390254 15.8208752,26.4000004 15.6000002,26.4000004 C15.3999002,26.4000004 15.1995002,26.3502004 15.0181502,26.2494004 C14.6367002,26.0379004 14.4000002,25.6365004 14.4000002,25.2000004 L14.4000002,13.2000002 C14.4000002,12.7635002 14.6367002,12.3621002 15.0181502,12.1506002 C15.3996002,11.9379002 15.8660252,11.9508002 16.2360002,12.1822502 L25.8360004,18.1822503 C26.1867004,18.4020003 26.4000004,18.7863753 26.4000004,19.2000003 C26.4000004,19.6136253 26.1867004,19.9980753 25.8360004,20.2177503 Z" id="Shape" fill="#C51013" fill-rule="nonzero"></path>
    </g>
</svg>
