<?xml version="1.0" encoding="UTF-8"?>
<svg id="secure" viewBox="0 0 72 72" version="1.1" xmlns="http://www.w3.org/2000/svg" xmlns:xlink="http://www.w3.org/1999/xlink">
    <!--  51.2 (57519) -  -->
    <title>secure</title>
    <desc>By RummyCulture.</desc>
    <defs></defs>
    <g id="secure" stroke="none" stroke-width="1" fill="none" fill-rule="evenodd">
        <g transform="translate(7.000000, 11.000000)" fill-rule="nonzero">
            <ellipse id="Oval" fill="#D21A3C" cx="1.51041667" cy="18.1927711" rx="1.0875" ry="1.08433735"></ellipse>
            <path d="M37.3375,20.1807229 L31.4166667,20.1807229 L31.4166667,12.4698795 C31.4166667,8.97590361 28.5770833,6.14457831 25.0729167,6.14457831 C21.56875,6.14457831 18.7291667,8.97590361 18.7291667,12.4698795 L18.7291667,20.1807229 L12.8083333,20.1807229 L12.8083333,12.4698795 C12.8083333,5.72289157 18.30625,0.240963855 25.0729167,0.240963855 C31.8395833,0.240963855 37.3375,5.72289157 37.3375,12.4698795 L37.3375,20.1807229 Z" id="Shape" fill="#000000"></path>
            <g id="Group" transform="translate(6.041667, 19.879518)">
                <rect id="Rectangle-path" stroke="#000000" stroke-width="1.20000005" fill="#D21A3C" x="1.0875" y="0.662650602" width="35.8270833" height="27.7710843"></rect>
                <path d="M37.5791667,29.1566265 L0.422916667,29.1566265 L0.422916667,0 L37.6395833,0 L37.6395833,29.1566265 L37.5791667,29.1566265 Z M1.8125,27.7710843 L36.1895833,27.7710843 L36.1895833,1.38554217 L1.8125,1.38554217 L1.8125,27.7710843 Z" id="Shape" fill="#000000"></path>
            </g>
            <g id="Group" transform="translate(6.645833, 25.301205)" fill="#000000">
                <rect id="Rectangle-path" x="0.241666667" y="0.542168675" width="5.49791667" height="1.38554217"></rect>
                <rect id="Rectangle-path" x="0.241666667" y="4.75903614" width="5.49791667" height="1.38554217"></rect>
                <rect id="Rectangle-path" x="0.241666667" y="9.03614458" width="5.49791667" height="1.38554217"></rect>
                <rect id="Rectangle-path" x="0.241666667" y="13.253012" width="5.49791667" height="1.38554217"></rect>
                <rect id="Rectangle-path" x="0.241666667" y="17.4698795" width="5.49791667" height="1.38554217"></rect>
            </g>
            <ellipse id="Oval" fill="#000000" cx="25.0729167" cy="37.7710843" rx="2.59791667" ry="2.59036145"></ellipse>
            <rect id="Rectangle-path" fill="#000000" x="24.3479167" y="39.2168675" width="1.38958333" height="3.43373494"></rect>
            <g id="Group" transform="translate(30.208333, 17.469880)">
                <g id="Shape">
                    <path d="M23.38125,9.75903614 C19.9375,9.03614458 16.85625,7.28915663 14.4395833,4.69879518 L14.0770833,4.3373494 C13.95625,4.21686747 13.8354167,4.15662651 13.6541667,4.15662651 C13.4729167,4.15662651 13.3520833,4.21686747 13.23125,4.3373494 L12.6875,4.93975904 C10.3916667,7.34939759 7.49166667,9.03614458 4.28958333,9.75903614 L3.92708333,9.81927711 C3.68541667,9.87951807 3.50416667,10.1204819 3.50416667,10.3614458 C3.32291667,17.3493976 7.25,22.5301205 9.60625,24.939759 C10.9958333,26.3855422 12.86875,27.8313253 13.6541667,27.8313253 C14.5604167,27.8313253 16.3729167,26.2650602 17.7625,24.8795181 C19.6354167,22.8915663 24.0458333,17.4698795 23.8645833,10.3614458 C23.8041667,10.060241 23.6229167,9.81927711 23.38125,9.75903614 Z" fill="#0A9B29"></path>
                    <path d="M13.6541667,31.626506 C11.8416667,31.626506 8.39791667,28.1325301 8.03541667,27.7108434 C4.95416667,24.5783133 -0.120833333,17.8915663 0.120833333,8.79518072 C0.120833333,8.13253012 0.604166667,7.59036145 1.20833333,7.46987952 L1.69166667,7.34939759 C5.61875,6.44578313 9.12291667,4.39759036 11.9625,1.44578313 L12.6875,0.722891566 C12.9895833,0.421686747 13.3520833,0.301204819 13.7145833,0.301204819 C13.7145833,0.301204819 13.7145833,0.301204819 13.7145833,0.301204819 C14.0770833,0.301204819 14.4395833,0.481927711 14.68125,0.722891566 L15.1645833,1.20481928 C18.125,4.39759036 21.93125,6.56626506 26.1,7.40963855 C26.7645833,7.53012048 27.1875,8.07228916 27.1875,8.73493976 C27.4895833,18.0120482 21.8104167,25 19.3333333,27.5903614 C18.66875,28.313253 15.4666667,31.5662651 13.6541667,31.626506 Z M13.6541667,1.68674699 L12.9291667,2.40963855 C9.90833333,5.54216867 6.1625,7.71084337 1.99375,8.6746988 L1.51041667,8.79518072 C1.20833333,17.4698795 6.10208333,23.7349398 9.00208333,26.746988 C10.9958333,28.7951807 13.05,30.2409639 13.6541667,30.2409639 C14.31875,30.2409639 16.2520833,28.8554217 18.30625,26.686747 C20.6625,24.2168675 26.0395833,17.5903614 25.7979167,8.85542169 C21.3270833,7.95180723 17.3395833,5.6626506 14.1375,2.22891566 L13.6541667,1.68674699 Z" fill="#000000"></path>
                </g>
                <g transform="translate(2.416667, 3.012048)" fill="#000000" id="Shape">
                    <path d="M11.2375,25.5421687 C10.0895833,25.5421687 7.91458333,23.6144578 6.82708333,22.4698795 C4.35,19.939759 0.302083333,14.6385542 0.483333333,7.34939759 C0.483333333,6.92771084 0.785416667,6.56626506 1.20833333,6.5060241 L1.57083333,6.44578313 C4.77291667,5.72289157 7.67291667,4.03614458 9.96875,1.62650602 L10.5125,1.02409639 C10.69375,0.843373494 10.9354167,0.722891566 11.1770833,0.722891566 C11.1770833,0.722891566 11.1770833,0.722891566 11.1770833,0.722891566 C11.41875,0.722891566 11.6604167,0.843373494 11.8416667,1.02409639 L12.2041667,1.44578313 C14.6208333,4.03614458 17.7625,5.84337349 21.1458333,6.5060241 C21.56875,6.62650602 21.8708333,6.98795181 21.8708333,7.40963855 C22.1125,14.8192771 17.5208333,20.4216867 15.5875,22.4698795 C15.3458333,22.7108434 12.6270833,25.4819277 11.2375,25.5421687 Z M11.1770833,1.3253012 C11.1166667,1.3253012 11.05625,1.3253012 10.9958333,1.38554217 L10.4520833,1.98795181 C8.03541667,4.51807229 5.01458333,6.20481928 1.69166667,6.98795181 L1.32916667,7.04819277 C1.20833333,7.04819277 1.14791667,7.1686747 1.14791667,7.28915663 C0.966666667,14.3373494 4.89375,19.4578313 7.31041667,21.9277108 C8.88125,23.5542169 10.5729167,24.8192771 11.2375,24.8192771 C11.9020833,24.8192771 13.59375,23.5542169 15.1645833,21.8674699 C17.0979167,19.8795181 21.5083333,14.3975904 21.2666667,7.28915663 C21.2666667,7.1686747 21.20625,7.10843373 21.0854167,7.04819277 C17.5208333,6.3253012 14.31875,4.45783133 11.78125,1.74698795 L11.41875,1.3253012 C11.3583333,1.38554217 11.2375,1.3253012 11.1770833,1.3253012 Z"></path>
                    <path d="M11.2375,25.6024096 C9.7875,25.6024096 7.06875,22.8313253 6.76666667,22.4698795 C4.28958333,19.939759 0.18125,14.5783133 0.422916667,7.28915663 C0.422916667,6.80722892 0.725,6.44578313 1.20833333,6.3253012 L1.57083333,6.26506024 C4.77291667,5.54216867 7.67291667,3.85542169 9.96875,1.44578313 L10.5125,0.843373494 C10.69375,0.662650602 10.9354167,0.542168675 11.2375,0.542168675 C11.2375,0.542168675 11.2375,0.542168675 11.2375,0.542168675 C11.4791667,0.542168675 11.78125,0.662650602 11.9625,0.843373494 L12.325,1.26506024 C14.7416667,3.85542169 17.8229167,5.60240964 21.20625,6.3253012 C21.6895833,6.44578313 21.9916667,6.80722892 21.9916667,7.28915663 C22.2333333,14.7590361 17.6416667,20.3614458 15.6479167,22.4096386 C15.40625,22.7710843 12.6875,25.6024096 11.2375,25.6024096 Z M11.2375,0.722891566 C10.9958333,0.722891566 10.8145833,0.78313253 10.6333333,0.963855422 L10.0895833,1.56626506 C7.79375,3.97590361 4.83333333,5.6626506 1.63125,6.38554217 L1.20833333,6.5060241 C0.845833333,6.56626506 0.54375,6.92771084 0.54375,7.28915663 C0.3625,14.5180723 4.41041667,19.8192771 6.8875,22.3493976 C7.975,23.4939759 10.15,25.4216867 11.2375,25.4216867 C12.3854167,25.4216867 14.5,23.4337349 15.5875,22.2891566 C17.5208333,20.2409639 22.1125,14.6385542 21.8708333,7.28915663 C21.8708333,6.92771084 21.56875,6.56626506 21.20625,6.5060241 C17.7625,5.78313253 14.6208333,4.03614458 12.2041667,1.38554217 L11.8416667,0.963855422 C11.6604167,0.843373494 11.41875,0.722891566 11.2375,0.722891566 C11.2375,0.722891566 11.2375,0.722891566 11.2375,0.722891566 Z M11.2375,24.939759 C10.5729167,24.939759 8.88125,23.6746988 7.25,22.0481928 C4.83333333,19.5783133 0.90625,14.3975904 1.0875,7.34939759 C1.0875,7.22891566 1.20833333,7.04819277 1.32916667,7.04819277 L1.69166667,6.98795181 C5.01458333,6.20481928 8.03541667,4.51807229 10.3916667,1.98795181 L10.9354167,1.38554217 C10.9958333,1.3253012 11.1166667,1.26506024 11.1770833,1.26506024 C11.2375,1.26506024 11.3583333,1.26506024 11.41875,1.38554217 L11.78125,1.80722892 C14.31875,4.51807229 17.5208333,6.3253012 21.025,7.04819277 C21.1458333,7.10843373 21.2666667,7.22891566 21.2666667,7.34939759 C21.5083333,14.5180723 17.0375,20 15.1041667,21.9879518 C13.59375,23.6746988 11.9020833,24.939759 11.2375,24.939759 Z M11.1770833,1.44578313 C11.1770833,1.44578313 11.1166667,1.44578313 11.05625,1.5060241 L10.5125,2.10843373 C8.09583333,4.63855422 5.075,6.38554217 1.69166667,7.1686747 L1.32916667,7.22891566 C1.26875,7.22891566 1.20833333,7.28915663 1.20833333,7.34939759 C1.02708333,14.3373494 4.95416667,19.5180723 7.31041667,21.9277108 C8.82083333,23.4939759 10.5729167,24.7590361 11.1166667,24.7590361 C11.78125,24.7590361 13.4125,23.4939759 14.9833333,21.8674699 C16.9770833,19.8795181 21.3875,14.4578313 21.1458333,7.34939759 C21.1458333,7.28915663 21.0854167,7.22891566 21.025,7.22891566 C17.4604167,6.5060241 14.1979167,4.63855422 11.6604167,1.92771084 L11.2979167,1.5060241 C11.2979167,1.44578313 11.2375,1.44578313 11.1770833,1.44578313 Z"></path>
                </g>
                <polygon id="Shape" stroke="#000000" stroke-width="0.600000024" fill="#000000" points="12.6270833 20.6626506 8.76041667 18.0722892 9.54583333 16.8674699 12.3854167 18.7349398 18.66875 11.8072289 19.75625 12.7710843"></polygon>
            </g>
            <path d="M44.3458333,19.6385542 L43.8625,19.1566265 L43.1375,19.8795181 C40.1166667,23.0120482 36.3104167,25.1807229 32.1416667,26.1445783 L31.6583333,26.2650602 C31.4166667,34.939759 36.25,41.2650602 39.2104167,44.2771084 C41.2041667,46.3253012 43.2583333,47.7710843 43.8625,47.7710843 C44.5270833,47.7710843 46.4604167,46.3855422 48.575,44.2168675 C50.93125,41.746988 56.36875,35.060241 56.0666667,26.3253012 C51.5958333,25.3012048 47.5479167,23.0120482 44.3458333,19.6385542 Z M48.3333333,42.8915663 C48.03125,43.1927711 45.3125,46.0240964 43.9229167,46.0240964 C42.775,46.0240964 40.6,44.0963855 39.5125,42.9518072 C37.0354167,40.4216867 32.9270833,35.060241 33.16875,27.7710843 C33.16875,27.3493976 33.4708333,26.9879518 33.89375,26.8674699 L34.25625,26.8072289 C37.4583333,26.0843373 40.3583333,24.3975904 42.7145833,21.9879518 L43.2583333,21.3855422 C43.4395833,21.2048193 43.68125,21.0843373 43.9229167,21.0843373 C43.9229167,21.0843373 43.9229167,21.0843373 43.9229167,21.0843373 C44.1645833,21.0843373 44.40625,21.2048193 44.5875,21.3855422 L44.95,21.8072289 C47.3666667,24.4578313 50.5083333,26.2048193 53.9520833,26.9277108 C54.375,27.0481928 54.6770833,27.4096386 54.6770833,27.8313253 C54.8583333,35.1807229 50.2666667,40.8433735 48.3333333,42.8915663 Z" id="Shape" fill="#FBC03D"></path>
            <path d="M3.44375,15.7228916 C2.65833333,14.4578313 1.69166667,13.4337349 0.483333333,12.7710843 C1.75208333,12.1084337 2.71875,11.0843373 3.44375,9.81927711 C4.04791667,11.0843373 5.075,11.9879518 6.40416667,12.7710843 C5.13541667,13.4337349 4.16875,14.4578313 3.44375,15.7228916 Z" id="Shape" fill="#000000"></path>
            <path d="M6.8875,18.5542169 C6.40416667,17.8313253 5.86041667,17.2289157 5.19583333,16.8674699 C5.92083333,16.5060241 6.46458333,15.9036145 6.8875,15.1807229 C7.25,15.9036145 7.79375,16.4457831 8.57916667,16.8674699 C7.85416667,17.2891566 7.31041667,17.8313253 6.8875,18.5542169 Z" id="Shape" fill="#000000"></path>
        </g>
    </g>
</svg>
