<svg xmlns="http://www.w3.org/2000/svg" width="172" height="57" viewBox="0 0 172 57"><g transform="translate(-274 -161)"><rect width="172" height="57" rx="10" transform="translate(274 161)"/><g transform="translate(238.978 168.286)"><path d="M57.366,150.062c-6.208-.036-11.344-12.709-11.344-19.163,0-10.543,7.909-12.851,10.957-12.851a12.608,12.608,0,0,1,4.134,1.017,9.241,9.241,0,0,0,2.361.677,7.346,7.346,0,0,0,1.694-.549,13.573,13.573,0,0,1,5.1-1.234h.012a10.462,10.462,0,0,1,8.755,4.422l.639.96-.919.693c-1.313.991-3.708,2.8-3.708,6.377a7.2,7.2,0,0,0,4.016,6.654c.575.346,1.171.7,1.171,1.483,0,.51-4.067,11.452-9.974,11.452a8.021,8.021,0,0,1-3.368-.817,6.829,6.829,0,0,0-3-.722,7.711,7.711,0,0,0-2.374.642,11.627,11.627,0,0,1-4.117.961Z" transform="translate(0 -108.348)" fill="#fff"/><path d="M262.991,0c.154,5.546-3.813,9.394-7.775,9.153C254.564,4.727,259.178,0,262.991,0Z" transform="translate(-192.094)" fill="#fff"/></g><path d="M.908,0V-7.82H3.115a3.554,3.554,0,0,1,1.8.451A3.051,3.051,0,0,1,6.131-6.085a4.178,4.178,0,0,1,.432,1.912v.5a4.193,4.193,0,0,1-.427,1.939A3,3,0,0,1,4.917-.457,3.78,3.78,0,0,1,3.072,0ZM1.939-6.972V-.843H3.024A2.362,2.362,0,0,0,4.88-1.584,3.061,3.061,0,0,0,5.543-3.7v-.457a3.109,3.109,0,0,0-.626-2.071,2.228,2.228,0,0,0-1.775-.749ZM7.7-2.959A3.433,3.433,0,0,1,8.038-4.5a2.5,2.5,0,0,1,.935-1.053,2.544,2.544,0,0,1,1.367-.371,2.451,2.451,0,0,1,1.92.822,3.162,3.162,0,0,1,.733,2.186v.07a3.462,3.462,0,0,1-.325,1.523,2.467,2.467,0,0,1-.929,1.05A2.573,2.573,0,0,1,10.35.107,2.445,2.445,0,0,1,8.435-.714,3.146,3.146,0,0,1,7.7-2.89Zm1,.118A2.486,2.486,0,0,0,9.15-1.289a1.435,1.435,0,0,0,1.2.585,1.427,1.427,0,0,0,1.2-.594A2.719,2.719,0,0,0,12-2.959a2.482,2.482,0,0,0-.454-1.55A1.443,1.443,0,0,0,10.339-5.1a1.427,1.427,0,0,0-1.187.585A2.7,2.7,0,0,0,8.7-2.841ZM19.384-1.37,20.5-5.812H21.5L19.8,0H19L17.585-4.4,16.21,0H15.4L13.718-5.812h.988L15.85-1.461,17.2-5.812H18Zm4.061-4.442.032.73a2.118,2.118,0,0,1,1.74-.838q1.842,0,1.858,2.079V0h-.994V-3.846a1.338,1.338,0,0,0-.287-.929,1.152,1.152,0,0,0-.878-.3,1.434,1.434,0,0,0-.849.258,1.751,1.751,0,0,0-.569.677V0H22.5V-5.812ZM29.654,0H28.66V-8.25h.994ZM30.98-2.959A3.433,3.433,0,0,1,31.316-4.5a2.5,2.5,0,0,1,.935-1.053,2.544,2.544,0,0,1,1.367-.371,2.451,2.451,0,0,1,1.92.822,3.162,3.162,0,0,1,.733,2.186v.07a3.463,3.463,0,0,1-.325,1.523,2.467,2.467,0,0,1-.929,1.05,2.573,2.573,0,0,1-1.388.376,2.445,2.445,0,0,1-1.915-.822A3.146,3.146,0,0,1,30.98-2.89Zm1,.118a2.486,2.486,0,0,0,.448,1.552,1.435,1.435,0,0,0,1.2.585,1.427,1.427,0,0,0,1.2-.594,2.719,2.719,0,0,0,.446-1.662,2.482,2.482,0,0,0-.454-1.55A1.443,1.443,0,0,0,33.618-5.1a1.427,1.427,0,0,0-1.187.585A2.7,2.7,0,0,0,31.979-2.841ZM41.1,0a2.087,2.087,0,0,1-.14-.612,2.217,2.217,0,0,1-1.654.72A2.051,2.051,0,0,1,37.9-.379a1.573,1.573,0,0,1-.551-1.233,1.643,1.643,0,0,1,.69-1.41,3.254,3.254,0,0,1,1.942-.5h.967V-3.98a1.116,1.116,0,0,0-.312-.83,1.252,1.252,0,0,0-.918-.309,1.449,1.449,0,0,0-.892.269.791.791,0,0,0-.36.65h-1a1.371,1.371,0,0,1,.309-.841,2.108,2.108,0,0,1,.838-.642,2.819,2.819,0,0,1,1.163-.236,2.3,2.3,0,0,1,1.574.5,1.812,1.812,0,0,1,.591,1.383v2.675a3.27,3.27,0,0,0,.2,1.273V0ZM39.456-.757A1.746,1.746,0,0,0,40.342-1a1.462,1.462,0,0,0,.607-.628V-2.82H40.17q-1.826,0-1.826,1.069a.9.9,0,0,0,.312.73A1.2,1.2,0,0,0,39.456-.757Zm3.8-2.2a3.4,3.4,0,0,1,.634-2.151,2,2,0,0,1,1.66-.814,2.016,2.016,0,0,1,1.617.7V-8.25h.994V0H47.25L47.2-.623a2.024,2.024,0,0,1-1.66.73A1.985,1.985,0,0,1,43.9-.72a3.443,3.443,0,0,1-.636-2.159Zm.994.113a2.578,2.578,0,0,0,.408,1.547,1.32,1.32,0,0,0,1.128.559,1.45,1.45,0,0,0,1.38-.849V-4.254a1.461,1.461,0,0,0-1.37-.822,1.326,1.326,0,0,0-1.139.564A2.838,2.838,0,0,0,44.252-2.841ZM58.6-3.658a4.838,4.838,0,0,1-.387,2.006,2.929,2.929,0,0,1-1.1,1.308,3.015,3.015,0,0,1-1.654.451,2.989,2.989,0,0,1-1.638-.454,3,3,0,0,1-1.109-1.294,4.642,4.642,0,0,1-.406-1.947v-.564A4.78,4.78,0,0,1,52.7-6.145,2.989,2.989,0,0,1,53.81-7.469a2.976,2.976,0,0,1,1.641-.459,3.032,3.032,0,0,1,1.657.454,2.924,2.924,0,0,1,1.1,1.316A4.861,4.861,0,0,1,58.6-4.152Zm-1.026-.5A3.506,3.506,0,0,0,57.014-6.3a1.842,1.842,0,0,0-1.563-.744,1.823,1.823,0,0,0-1.539.744,3.434,3.434,0,0,0-.577,2.065v.575A3.511,3.511,0,0,0,53.9-1.539a1.83,1.83,0,0,0,1.56.771A1.823,1.823,0,0,0,57.009-1.5a3.492,3.492,0,0,0,.564-2.087ZM60.93-5.812l.032.73a2.118,2.118,0,0,1,1.74-.838q1.842,0,1.858,2.079V0h-.994V-3.846a1.338,1.338,0,0,0-.287-.929,1.152,1.152,0,0,0-.878-.3,1.434,1.434,0,0,0-.849.258,1.751,1.751,0,0,0-.569.677V0H59.99V-5.812Zm9.2-1.407v1.407h1.085v.768H70.13v3.6a.8.8,0,0,0,.145.524.611.611,0,0,0,.494.175,2.406,2.406,0,0,0,.473-.064V0a2.881,2.881,0,0,1-.763.107,1.237,1.237,0,0,1-1-.4,1.731,1.731,0,0,1-.338-1.144v-3.6H68.079v-.768h1.058V-7.219Zm3.239,2.111a2.113,2.113,0,0,1,1.719-.811q1.842,0,1.858,2.079V0h-.994V-3.846a1.338,1.338,0,0,0-.287-.929,1.152,1.152,0,0,0-.878-.3,1.434,1.434,0,0,0-.849.258,1.751,1.751,0,0,0-.569.677V0h-.994V-8.25h.994ZM80.846.107a2.539,2.539,0,0,1-1.923-.776,2.881,2.881,0,0,1-.741-2.076v-.183a3.487,3.487,0,0,1,.33-1.544,2.577,2.577,0,0,1,.924-1.063,2.323,2.323,0,0,1,1.286-.384,2.177,2.177,0,0,1,1.762.747,3.232,3.232,0,0,1,.628,2.138v.414H79.175a2.066,2.066,0,0,0,.5,1.388A1.579,1.579,0,0,0,80.9-.7a1.731,1.731,0,0,0,.892-.215,2.24,2.24,0,0,0,.639-.569l.607.473A2.44,2.44,0,0,1,80.846.107ZM80.722-5.1a1.325,1.325,0,0,0-1.01.438,2.128,2.128,0,0,0-.5,1.227h2.911v-.075a1.893,1.893,0,0,0-.408-1.174A1.248,1.248,0,0,0,80.722-5.1Z" transform="translate(331 183)" fill="#fff"/><path d="M9.3-2.93H4.16L3.184,0H.068L5.361-14.219H8.076L13.4,0H10.283ZM4.951-5.3H8.506L6.719-10.625Zm18.633.117a6.337,6.337,0,0,1-1.108,3.911A3.554,3.554,0,0,1,19.482.2,3.292,3.292,0,0,1,16.895-.918v4.98H14.072V-10.566h2.617l.1,1.035a3.317,3.317,0,0,1,2.676-1.23A3.578,3.578,0,0,1,22.5-9.316a6.509,6.509,0,0,1,1.084,3.984Zm-2.822-.205a4.159,4.159,0,0,0-.522-2.275,1.7,1.7,0,0,0-1.519-.8,1.848,1.848,0,0,0-1.826,1.016v4.326A1.879,1.879,0,0,0,18.74-2.08Q20.762-2.08,20.762-5.391Zm14.082.205a6.337,6.337,0,0,1-1.108,3.911A3.554,3.554,0,0,1,30.742.2,3.292,3.292,0,0,1,28.154-.918v4.98H25.332V-10.566h2.617l.1,1.035a3.317,3.317,0,0,1,2.676-1.23A3.578,3.578,0,0,1,33.76-9.316a6.509,6.509,0,0,1,1.084,3.984Zm-2.822-.205A4.159,4.159,0,0,0,31.5-7.666a1.7,1.7,0,0,0-1.519-.8,1.848,1.848,0,0,0-1.826,1.016v4.326A1.879,1.879,0,0,0,30-2.08Q32.021-2.08,32.021-5.391ZM49.131-3.73A1.5,1.5,0,0,0,48.545-5a7.685,7.685,0,0,0-2.109-.937,14.953,14.953,0,0,1-2.412-.972A3.941,3.941,0,0,1,41.6-10.439a3.434,3.434,0,0,1,.649-2.056,4.236,4.236,0,0,1,1.865-1.411,7.021,7.021,0,0,1,2.729-.508,6.39,6.39,0,0,1,2.715.552A4.323,4.323,0,0,1,51.411-12.3a4.076,4.076,0,0,1,.659,2.285h-2.93a1.917,1.917,0,0,0-.615-1.519A2.529,2.529,0,0,0,46.8-12.08a2.7,2.7,0,0,0-1.67.454,1.432,1.432,0,0,0-.6,1.2,1.372,1.372,0,0,0,.7,1.162,7.889,7.889,0,0,0,2.056.879,8.882,8.882,0,0,1,3.643,1.865A3.715,3.715,0,0,1,52.07-3.75a3.422,3.422,0,0,1-1.4,2.9A6.113,6.113,0,0,1,46.914.2a7.26,7.26,0,0,1-2.988-.6A4.729,4.729,0,0,1,41.87-2.051a4.214,4.214,0,0,1-.708-2.422H44.1q0,2.354,2.813,2.354a2.736,2.736,0,0,0,1.631-.425A1.382,1.382,0,0,0,49.131-3.73Zm8.115-9.434v2.6h1.807V-8.5H57.246v5.273a1.259,1.259,0,0,0,.225.84,1.128,1.128,0,0,0,.859.254,4.5,4.5,0,0,0,.83-.068V-.059A5.81,5.81,0,0,1,57.451.2q-2.969,0-3.027-3V-8.5H52.881v-2.07h1.543v-2.6Zm2.646,7.783a6.267,6.267,0,0,1,.605-2.8,4.432,4.432,0,0,1,1.743-1.9,5.086,5.086,0,0,1,2.642-.674,4.812,4.812,0,0,1,3.491,1.309A5.252,5.252,0,0,1,69.883-5.9l.02.723a5.523,5.523,0,0,1-1.357,3.9A4.718,4.718,0,0,1,64.9.2,4.742,4.742,0,0,1,61.255-1.27a5.62,5.62,0,0,1-1.362-3.984Zm2.822.205a3.939,3.939,0,0,0,.566,2.3,1.869,1.869,0,0,0,1.621.8,1.874,1.874,0,0,0,1.6-.786,4.31,4.31,0,0,0,.576-2.515A3.9,3.9,0,0,0,66.5-7.666a1.874,1.874,0,0,0-1.621-.811,1.843,1.843,0,0,0-1.6.806A4.383,4.383,0,0,0,62.715-5.176ZM77.578-7.92A7.667,7.667,0,0,0,76.563-8a2.067,2.067,0,0,0-2.1,1.084V0H71.641V-10.566h2.666l.078,1.26a2.615,2.615,0,0,1,2.354-1.455,2.957,2.957,0,0,1,.879.127ZM83.613.2A5.187,5.187,0,0,1,79.829-1.23a5.068,5.068,0,0,1-1.46-3.8V-5.3a6.383,6.383,0,0,1,.615-2.847,4.515,4.515,0,0,1,1.743-1.934,4.893,4.893,0,0,1,2.573-.679,4.385,4.385,0,0,1,3.413,1.367,5.555,5.555,0,0,1,1.245,3.877v1.152H81.23a2.622,2.622,0,0,0,.825,1.66A2.5,2.5,0,0,0,83.8-2.08a3.046,3.046,0,0,0,2.549-1.182l1.387,1.553a4.237,4.237,0,0,1-1.719,1.4A5.639,5.639,0,0,1,83.613.2Zm-.322-8.672a1.767,1.767,0,0,0-1.362.566,2.926,2.926,0,0,0-.669,1.621h3.926v-.225a2.086,2.086,0,0,0-.508-1.45A1.824,1.824,0,0,0,83.291-8.477Z" transform="translate(330 204)" fill="#fff"/></g></svg>