<?xml version="1.0" encoding="UTF-8"?>
<svg id="f-customer" viewBox="0 0 72 72" version="1.1" xmlns="http://www.w3.org/2000/svg" xmlns:xlink="http://www.w3.org/1999/xlink">
    <!--  51.2 (57519) -  -->
    <title>f-customer</title>
    <desc>By RummyCulture.</desc>
    <defs></defs>
    <g id="f-customer" stroke="none" stroke-width="1" fill="none" fill-rule="evenodd">
        <g transform="translate(6.000000, 2.000000)" fill-rule="nonzero">
            <g id="Group">
                <g id="Shape">
                    <g transform="translate(1.000000, 1.000000)" fill="#C5C5FF">
                        <path d="M27.3,35.5 C22.5,31.5 19.2,26.6 17.6,23.8 L16.3,21.4 C16.7,20.9 20.1,17.3 21.6,15.4 C23.4,12.9 20.8,10.7 20.8,10.7 C20.8,10.7 13.3,3.2 11.6,1.7 C9.9,0.2 7.9,1 7.9,1 C4.3,3.3 0.6,5.3 0.4,15 C0.4,24.1 7.3,33.4 14.7,40.7 C22.2,48.9 32.4,57.1 42.3,57.1 C52,56.9 54,53.2 56.3,49.6 C56.3,49.6 57.1,47.6 55.6,45.9 C54.1,44.2 46.6,36.7 46.6,36.7 C46.6,36.7 44.4,34.1 42,36 C40.2,37.4 36.9,40.4 36.1,41.2 C36.1,41.1 30.5,38.2 27.3,35.5 Z"></path>
                        <path d="M14.5,41 C7.9,34.6 0.1,24.9 0.1,15.1 C0.3,5.7 3.9,3.4 7.3,1.2 L7.7,0.9 C7.8,0.9 9.8,1.11022302e-15 11.6,1.6 C13.3,3.1 20.7,10.5 20.8,10.6 C20.8,10.6 23.6,13 21.7,15.6 C20.5,17.2 18,20 16.5,21.5 L17.7,23.7 C20.7,28.6 23.8,32.4 27.4,35.3 C30.3,37.7 35.1,40.4 36,40.8 C36.9,40 40,37.1 41.8,35.7 C44.4,33.8 46.8,36.5 46.8,36.5 C46.9,36.6 54.3,44 55.8,45.7 C57.4,47.5 56.5,49.5 56.5,49.6 L56.2,50 C54,53.4 51.7,57 42.3,57.2 C42.3,57.2 42.3,57.2 42.3,57.2 C31.1,57.4 20.1,47.1 14.5,41 Z M42.1,36.2 C40.2,37.6 36.9,40.7 36.2,41.3 C35.8,41.7 28.5,36.8 27.2,35.7 C23.6,32.7 20.4,28.9 17.4,24 L16,21.5 L16.1,21.3 C18.5,18.7 20.4,16.5 21.3,15.3 C23,13 20.6,11 20.5,10.9 C20.4,10.8 13,3.4 11.3,1.9 C9.8,0.6 8,1.3 8,1.3 L7.6,1.6 C4.1,3.8 0.8,6 0.6,15.2 C0.6,24.8 8.4,34.4 14.9,40.7 C20.4,46.8 31.3,57 42.2,57 C42.2,57 42.2,57 42.2,57 C51.4,56.8 53.5,53.5 55.8,50 L56,49.6 C56,49.5 56.8,47.7 55.4,46.2 C53.9,44.5 46.5,37.1 46.4,37 C46.3,36.9 45.2,35.6 43.7,35.6 C43.3,35.6 42.7,35.7 42.1,36.2 Z"></path>
                    </g>
                    <g fill="#1B1A4E">
                        <path d="M15,42.5 C8.4,36 0.4,26.2 0.5,16.1 C0.7,6.3 4.4,4 8,1.7 L8.4,1.4 L8.5,1.3 C8.6,1.3 11,0.3 13.1,2.1 C14.8,3.6 22,10.8 22.3,11.1 C23.4,12 25.1,14.5 23.3,17 C22.2,18.5 19.9,21 18.4,22.7 L19.4,24.5 C22.3,29.3 25.5,33.1 29,35.9 C31.6,38 35.6,40.3 37.1,41.1 C38.3,40 41,37.5 42.6,36.3 C45.1,34.5 47.5,36.1 48.4,37.2 C48.7,37.5 55.9,44.7 57.4,46.4 C59.2,48.5 58.2,50.9 58.2,51 L57.9,51.5 C55.6,55.1 53.2,58.8 43.4,59 C43.4,59 43.4,59 43.4,59 C31.9,59.1 20.7,48.6 15,42.5 Z M56,47.6 C54.5,45.9 47.1,38.5 47,38.4 C46.8,38.2 45.2,36.4 43.5,37.7 C41.7,39.1 38.3,42.2 37.7,42.8 C37.2,43.3 37.2,43.3 33.5,41.1 C31.1,39.7 29.2,38.4 27.8,37.2 C24.1,34.2 20.9,30.3 17.8,25.3 L16.5,22.9 L16.3,22.3 L16.7,21.8 C19.1,19.2 21,17.1 21.9,15.9 C23.2,14.2 21.4,12.6 21.2,12.4 C21,12.3 13.6,4.9 12,3.4 C10.9,2.4 9.6,2.8 9.3,2.9 L9,3.1 C5.6,5.3 2.5,7.3 2.3,16.1 C2.3,25.5 9.9,34.9 16.4,41.2 C21.9,47.2 32.7,57.3 43.3,57.3 C43.3,57.3 43.3,57.3 43.3,57.3 C52.2,57.1 54.2,53.9 56.4,50.6 L56.6,50.3 C56.6,50 57,48.7 56,47.6 Z"></path>
                        <path d="M14.9,42.6 C8.2,36.1 0.2,26.2 0.2,16.1 C0.4,6.2 4.2,3.8 7.8,1.4 L8.2,1.1 L8.4,1 C8.5,1 11,-0.1 13.2,1.8 C14.9,3.3 22.1,10.4 22.4,10.8 C23.6,11.8 25.3,14.4 23.4,17 C22.3,18.5 20.2,20.8 18.6,22.6 L19.5,24.2 C22.4,29 25.5,32.7 29,35.6 C31.5,37.6 35.3,39.8 36.9,40.7 C38.3,39.4 40.8,37.1 42.3,36 C44.7,34.2 47.3,35.6 48.4,36.9 C48.7,37.2 55.9,44.4 57.4,46.2 C59.3,48.4 58.3,50.9 58.2,51 L57.9,51.5 C55.6,55.1 53.2,58.9 43.2,59.1 C31.8,59.3 20.6,48.8 14.9,42.6 Z M42.6,36.5 C41,37.7 38.5,40 37.1,41.3 L37,41.4 L36.9,41.3 C35.3,40.4 31.3,38.2 28.8,36.1 C25.3,33.2 22.1,29.4 19.2,24.6 L18.2,22.7 L18.3,22.6 C19.9,20.9 22.1,18.5 23.2,17 C24.9,14.7 23.4,12.3 22.3,11.4 C22,11.1 14.8,3.9 13.1,2.4 C11.1,0.7 8.8,1.6 8.8,1.6 L8.3,1.9 C4.8,4.2 1.1,6.5 0.9,16.2 C0.9,26.1 8.8,35.9 15.4,42.4 C21,48.6 32.2,59 43.4,59 L43.4,59.2 L43.4,59 C53.1,58.8 55.4,55.1 57.7,51.6 L58,51.1 C58,51 59,48.7 57.2,46.7 C55.7,45 48.5,37.8 48.2,37.5 C47.6,36.8 46.4,35.8 44.9,35.8 C44.1,35.7 43.3,35.9 42.6,36.5 Z M16.1,41.4 C9.7,35.1 2,25.6 2,16.1 C2.2,7.1 5.4,5.1 8.8,2.9 L9.2,2.7 C9.5,2.6 10.9,2.2 12.1,3.3 C13.8,4.7 21,11.9 21.3,12.2 C22.4,13.1 23.1,14.6 22.1,16 C21.2,17.2 19.3,19.4 16.9,21.9 L16.6,22.3 L16.8,22.7 L18.1,25.1 C21.1,30.1 24.4,34 28,37 C29.4,38.1 31.3,39.4 33.7,40.9 C37.2,43 37.2,43 37.6,42.6 C38.3,42 41.6,38.9 43.5,37.5 C45.4,36.1 47.1,38 47.3,38.2 C47.3,38.2 47.4,38.3 47.6,38.5 C53.7,44.6 55.7,46.7 56.3,47.4 C57.4,48.6 57,50.1 56.9,50.3 L56.7,50.7 C54.5,54.1 52.5,57.3 43.4,57.5 C32.5,57.6 21.6,47.4 16.1,41.4 Z M55.8,47.7 C55.2,47 53.2,44.9 47.1,38.8 C46.9,38.6 46.8,38.5 46.8,38.5 C46.6,38.3 45.2,36.7 43.6,37.8 C41.8,39.2 38.4,42.3 37.8,42.9 C37.1,43.5 37.1,43.5 33.4,41.2 C31,39.8 29.1,38.4 27.7,37.3 C24,34.3 20.7,30.4 17.7,25.3 L16.3,23 L16,22.3 L16.5,21.7 C18.9,19.1 20.8,17 21.7,15.8 C22.8,14.3 21.4,12.9 21,12.5 C20.9,12.4 13.5,5 11.9,3.6 C10.8,2.7 9.6,3 9.4,3.1 L9,3.3 C5.7,5.4 2.6,7.4 2.4,16.2 C2.4,25.5 10,34.9 16.4,41.2 C21.9,47.2 32.6,57.2 43.2,57.2 C52,57 54,53.9 56.1,50.6 L56.3,50.3 C56.4,49.9 56.7,48.8 55.8,47.7 Z"></path>
                    </g>
                </g>
                <g transform="translate(39.000000, 37.000000)" fill="#1B1A4E" id="Shape">
                    <polygon points="16.7 16.9 17.7 15.7 1.8 0.8 0.4 1.7"></polygon>
                    <path d="M0,1.9 L1.8,0.4 L18.2,15.8 L16.8,17.6 L0,1.9 Z M1.8,1.3 L1,1.9 L16.6,16.6 L17.2,15.9 L1.8,1.3 Z"></path>
                </g>
                <g transform="translate(4.000000, 2.000000)" fill="#1B1A4E" id="Shape">
                    <polygon points="17 17.3 18.1 16 2.7 0.7 1.3 1.7"></polygon>
                    <path d="M0.8,1.7 L2.7,0.3 L18.5,16 L17,17.8 L0.8,1.7 Z M2.6,1.2 L1.8,1.7 L16.9,16.7 L17.5,16 L2.6,1.2 Z"></path>
                </g>
            </g>
            <circle id="Oval" fill="#1B1A4E" cx="17.5" cy="53.6" r="14.4"></circle>
            <g id="Group" transform="translate(9.000000, 48.000000)" fill="#FFFFFF">
                <g id="Shape">
                    <path d="M0.9,10.9 L0.9,10.1 L2,9.1 C4.6,6.6 5.7,5.3 5.8,3.8 C5.8,2.8 5.3,1.8 3.8,1.8 C2.9,1.8 2.1,2.3 1.7,2.7 L1.3,1.7 C2,1.1 3,0.7 4.2,0.7 C6.4,0.7 7.3,2.2 7.3,3.6 C7.3,5.5 5.9,7 3.8,9 L3,9.7 L7.5,9.7 L7.5,10.8 L0.9,10.8 L0.9,10.9 Z"></path>
                    <path d="M7.8,11.3 L0.5,11.3 L0.5,9.9 L1.7,8.7 C4.3,6.3 5.3,5 5.3,3.7 C5.3,2.7 4.8,2.2 3.7,2.2 C2.9,2.2 2.2,2.7 1.8,3 L1.4,3.4 L0.6,1.6 L0.8,1.4 C1.7,0.7 2.8,0.3 3.9,0.3 C6.3,0.3 7.4,2 7.4,3.7 C7.4,5.8 5.8,7.5 3.8,9.4 L3.7,9.5 L7.6,9.5 L7.6,11.3 L7.8,11.3 Z M1.3,10.5 L6.9,10.5 L6.9,10.2 L2.4,10.2 L2.4,9.6 L2.5,9.4 L3.3,8.7 C5.6,6.5 6.6,5.2 6.6,3.6 C6.6,2.4 5.9,1.1 3.9,1.1 C3,1.1 2.2,1.4 1.6,1.8 L1.7,2 C2.2,1.7 2.9,1.4 3.7,1.4 C5.2,1.4 6.1,2.3 6.1,3.8 C6.1,5.5 4.8,6.9 2.2,9.4 L1.3,10.3 L1.3,10.5 Z"></path>
                </g>
                <g transform="translate(8.000000, 0.000000)" id="Shape">
                    <path d="M5.5,10.9 L5.5,8.1 L0.8,8.1 L0.8,7.2 L5.3,0.8 L6.8,0.8 L6.8,7.1 L8.2,7.1 L8.2,8.2 L6.8,8.2 L6.8,11 L5.5,11 L5.5,10.9 Z M5.5,7.1 L5.5,3.7 C5.5,3.2 5.5,2.6 5.5,2.1 C5.2,2.7 4.9,3.1 4.7,3.6 L2.2,7 L5.5,7 L5.5,7.1 Z"></path>
                    <path d="M7.2,11.3 L5.1,11.3 L5.1,8.5 L0.4,8.5 L0.4,7 L5.1,0.3 L7.2,0.3 L7.2,6.6 L8.6,6.6 L8.6,8.5 L7.2,8.5 L7.2,11.3 Z M5.9,10.5 L6.3,10.5 L6.3,7.7 L7.7,7.7 L7.7,7.5 L6.3,7.5 L6.3,1.2 L5.5,1.2 L1.2,7.4 L1.2,7.7 L5.9,7.7 L5.9,10.5 Z M5.9,7.5 L1.7,7.5 L1.7,7 L1.8,6.9 L4.3,3.5 C4.6,3.1 4.8,2.6 5.1,2.1 L5.2,1.9 L5.9,1.9 L5.9,2.3 C5.9,2.8 5.9,3.3 5.9,3.9 L5.9,7.5 Z M3,6.7 L5.1,6.7 L5.1,3.8 C5.1,3.8 5.1,3.9 5,3.9 L3,6.7 Z"></path>
                </g>
            </g>
            <g id="Group" transform="translate(50.000000, 24.000000)">
                <circle id="Oval" fill="#C5C5FF" cx="1.1" cy="9.2" r="1.1"></circle>
                <path d="M4.4,8.1 C3.4,6.5 2.1,5.2 0.6,4.3 C2.2,3.4 3.4,2.2 4.4,0.5 C5.2,2.1 6.5,3.3 8.2,4.3 C6.6,5.3 5.4,6.5 4.4,8.1 Z" id="Shape" fill="#1B1A4E"></path>
                <path d="M7.4,13.2 C6.8,12.2 6,11.4 5.1,10.9 C6.1,10.4 6.9,9.6 7.4,8.6 C7.9,9.6 8.7,10.3 9.7,10.9 C8.8,11.4 8,12.2 7.4,13.2 Z" id="Shape" fill="#1B1A4E"></path>
            </g>
        </g>
    </g>
</svg>
