<?xml version="1.0" encoding="UTF-8"?>
<svg id="f-offer" viewBox="0 0 72 72" version="1.1" xmlns="http://www.w3.org/2000/svg" xmlns:xlink="http://www.w3.org/1999/xlink">
    <!--  51.2 (57519) -  -->
    <title>f-offer</title>
    <desc>By RummyCulture.</desc>
    <defs></defs>
    <g id="f-offer" stroke="none" stroke-width="1" fill="none" fill-rule="evenodd">
        <g transform="translate(10.000000, 3.000000)" fill-rule="nonzero">
            <g id="Group">
                <g>
                    <rect id="Rectangle-path" fill="#C5C5FF" transform="translate(22.073770, 30.166700) rotate(-168.000088) translate(-22.073770, -30.166700) " x="6.32454161" y="3.71799582" width="31.4984568" height="52.8974084"></rect>
                    <path d="M11.7,0.2 L43.9,7 L32.6,60.2 L0.4,53.4 L11.7,0.2 Z M42.2,8.1 L12.8,1.8 L2.1,52.2 L31.5,58.4 L42.2,8.1 Z" id="Shape" fill="#1B1A4E"></path>
                </g>
                <g transform="translate(0.000000, 2.000000)">
                    <rect id="Rectangle-path" fill="#C5C5FF" transform="translate(19.256850, 29.362100) rotate(-174.001491) translate(-19.256850, -29.362100) " x="3.50723982" y="2.91275465" width="31.4992204" height="52.8986907"></rect>
                    <path d="M5.7,0.6 L38.5,4 L32.8,58.1 L0,54.7 L5.7,0.6 Z M36.9,5.3 L7,2.2 L1.6,53.4 L31.5,56.5 L36.9,5.3 Z" id="Shape" fill="#1B1A4E"></path>
                </g>
                <g transform="translate(0.000000, 5.000000)">
                    <rect id="Rectangle-path" fill="#C5C5FF" transform="translate(16.415100, 27.860300) rotate(-180.000000) translate(-16.415100, -27.860300) " x="0.665100002" y="1.4103" width="31.5" height="52.9"></rect>
                    <path d="M32.9,0.7 L32.9,55 L0,55 L0,0.7 L32.9,0.7 Z M31.5,53.6 L31.5,2.1 L1.5,2.1 L1.5,53.6 L31.5,53.6 Z" id="Shape" fill="#1B1A4E"></path>
                </g>
                <polygon id="Shape" fill="#1B1A4E" points="22 8.5 22 9.9 28.6 9.9 28.6 17 30 17 30 8.5"></polygon>
                <polygon id="Shape" fill="#1B1A4E" points="2.7 8.5 2.7 17 4.1 17 4.1 9.9 10.7 9.9 10.7 8.5"></polygon>
                <polygon id="Shape" fill="#1B1A4E" points="22 55.7 22 57.1 30 57.1 30 48.5 28.6 48.5 28.6 55.7"></polygon>
                <polygon id="Shape" fill="#1B1A4E" points="2.7 48.5 2.7 57.1 10.7 57.1 10.7 55.7 4.1 55.7 4.1 48.5"></polygon>
                <g transform="translate(8.000000, 23.000000)">
                    <circle id="Oval" fill="#1B1A4E" cx="8.7" cy="8.9" r="8.2"></circle>
                    <path d="M5.1,11.1 L5.1,6 C5.6,6.3 5.8,6.5 5.8,6.5 L5.8,7.9 C6,7.7 6.3,7.6 6.6,7.5 L6.6,6.1 C6.6,6.1 6.6,6.1 6.6,6.1 C7.1,6.4 7.3,6.6 7.3,6.6 L7.3,7.5 C7.5,7.5 7.8,7.6 8.2,7.9 C8.6,8.2 8.8,8.5 8.9,8.7 C9.1,9.2 9.3,9.7 9.3,10.1 C9.3,10.1 10.5,9.1 12.9,7.1 L12.9,8.4 C10.6,10.4 9.4,11.4 9.4,11.4 L8.7,11.4 C8.7,11.2 8.7,11 8.7,10.8 C8.7,9.7 8.3,9 7.6,8.7 C7.5,8.7 7.4,8.6 7.3,8.6 L7.3,11.6 C7.3,11.6 7.3,11.6 7.3,11.6 C6.8,11.3 6.6,11.1 6.6,11.1 L6.6,8.7 C6.3,8.8 6.1,9.1 6,9.5 C5.9,9.8 5.9,10 5.9,10.3 L5.9,11.6 C5.3,11.3 5.1,11.1 5.1,11.1 Z" id="Shape" fill="#FFFFFF"></path>
                </g>
                <circle id="Oval" fill="#1B1A4E" cx="16.7" cy="18.2" r="2.1"></circle>
                <circle id="Oval" fill="#1B1A4E" cx="16.7" cy="45.9" r="2.1"></circle>
            </g>
            <circle id="Oval" fill="#1B1A4E" cx="38.6" cy="52.5" r="14.3"></circle>
            <g id="Group" transform="translate(41.000000, 27.000000)">
                <circle id="Oval" fill="#C5C5FF" cx="1.1" cy="7.7" r="1"></circle>
                <path d="M3.9,6.8 C3,5.4 2,4.4 0.8,3.7 C2.1,3 3.2,1.9 3.9,0.6 C4.5,1.9 5.6,2.9 7,3.7 C5.7,4.4 4.6,5.5 3.9,6.8 Z" id="Shape" fill="#1B1A4E"></path>
                <path d="M6.3,11 C5.8,10.2 5.1,9.5 4.4,9.1 C5.2,8.7 5.9,8 6.3,7.2 C6.7,8 7.4,8.7 8.2,9.1 C7.5,9.5 6.8,10.2 6.3,11 Z" id="Shape" fill="#1B1A4E"></path>
            </g>
            <polygon id="Shape" fill="#FFFFFF" points="47.3 47 45.5 45.4 35.2 57 31.7 52.6 29.8 54.1 33.5 58.5 33.5 58.5 34.6 59.8 35.1 60.4 35.1 60.4 35.1 60.4"></polygon>
        </g>
    </g>
</svg>
