<?xml version="1.0" encoding="UTF-8"?>
<svg id="f-secure" viewBox="0 0 72 72" version="1.1" xmlns="http://www.w3.org/2000/svg" xmlns:xlink="http://www.w3.org/1999/xlink">
    <!--  51.2 (57519) -  -->
    <title>f-secure</title>
    <desc>By RummyCulture.</desc>
    <defs></defs>
    <g id="f-secure" stroke="none" stroke-width="1" fill="none" fill-rule="evenodd">
        <g transform="translate(8.000000, 3.000000)" fill-rule="nonzero">
            <path d="M39.7,26 L32.1,26 L32.1,16 C32.1,11.5 28.4,7.9 24,7.9 C19.6,7.9 15.9,11.6 15.9,16 L15.9,26 L8.3,26 L8.3,16 C8.3,7.3 15.4,0.2 24.1,0.2 C32.8,0.2 39.7,7.4 39.7,16 L39.7,26 Z" id="Shape" fill="#1B1A4E"></path>
            <g id="Group" transform="translate(0.000000, 22.000000)">
                <rect id="Rectangle-path" fill="#C5C5FF" x="1" y="1.6" width="46" height="35.8"></rect>
                <path d="M47.9,38.3 L0,38.3 L0,0.6 L47.9,0.6 L47.9,38.3 Z M1.9,36.4 L46,36.4 L46,2.5 L1.9,2.5 L1.9,36.4 Z" id="Shape" fill="#1B1A4E"></path>
            </g>
            <g id="Group" transform="translate(1.000000, 29.000000)" fill="#1B1A4E">
                <rect id="Rectangle-path" x="0.5" y="0.5" width="7.2" height="1.9"></rect>
                <rect id="Rectangle-path" x="0.5" y="6.1" width="7.2" height="1.9"></rect>
                <rect id="Rectangle-path" x="0.5" y="11.7" width="7.2" height="1.9"></rect>
                <rect id="Rectangle-path" x="0.5" y="17.3" width="7.2" height="1.9"></rect>
                <rect id="Rectangle-path" x="0.5" y="22.9" width="7.2" height="1.9"></rect>
            </g>
            <circle id="Oval" fill="#1B1A4E" cx="23.4" cy="44.7" r="1.9"></circle>
            <circle id="Oval" fill="#1B1A4E" cx="39.6" cy="52.4" r="14.4"></circle>
            <path d="M35,44.5 L45.7,44.5 C45.1,45.5 44.7,46 44.6,46.1 L41.7,46.1 C42.1,46.6 42.4,47.1 42.5,47.8 L45.5,47.8 C45.5,47.8 45.6,47.8 45.6,47.8 C44.9,48.8 44.6,49.3 44.6,49.3 L42.6,49.3 C42.6,49.8 42.3,50.5 41.8,51.2 C41.2,51.9 40.6,52.4 40.1,52.7 C39.1,53.2 38.1,53.4 37.1,53.4 C37.1,53.5 39.2,56 43.5,61 L40.7,61 C36.5,56.1 34.4,53.7 34.4,53.7 L34.4,52.2 L34.4,52.1 C34.8,52.2 35.2,52.2 35.7,52.2 C38,52.2 39.5,51.4 40.1,49.9 C40.2,49.7 40.2,49.4 40.2,49.2 L34,49.2 C34,49.2 34,49.2 34,49.2 C34.7,48.2 35.1,47.7 35.1,47.7 L40.1,47.7 C39.8,47.1 39.3,46.7 38.4,46.3 C37.8,46.1 37.3,46 36.8,46 L34,46 C34.6,45 35,44.5 35,44.5 Z" id="Shape" fill="#FFFFFF"></path>
            <g id="Group" transform="translate(47.000000, 12.000000)">
                <circle id="Oval" fill="#C5C5FF" cx="1" cy="7.5" r="1"></circle>
                <path d="M3.7,6.6 C2.8,5.2 1.8,4.2 0.6,3.5 C1.9,2.8 3,1.7 3.7,0.4 C4.3,1.7 5.4,2.7 6.8,3.5 C5.5,4.2 4.5,5.3 3.7,6.6 Z" id="Shape" fill="#1B1A4E"></path>
                <path d="M6.2,10.9 C5.7,10.1 5,9.4 4.3,9 C5.1,8.6 5.8,7.9 6.2,7.1 C6.6,7.9 7.3,8.6 8.1,9 C7.3,9.4 6.7,10 6.2,10.9 Z" id="Shape" fill="#1B1A4E"></path>
            </g>
        </g>
    </g>
</svg>
