<?xml version="1.0" encoding="UTF-8"?>
<svg d="f-withdrawal" viewBox="0 0 72 72" version="1.1" xmlns="http://www.w3.org/2000/svg" xmlns:xlink="http://www.w3.org/1999/xlink">
    <!--  51.2 (57519) -  -->
    <title>f-withdrawal</title>
    <desc>By RummyCulture.</desc>
    <defs></defs>
    <g id="f-withdrawal" stroke="none" stroke-width="1" fill="none" fill-rule="evenodd">
        <g transform="translate(6.000000, 2.000000)" fill-rule="nonzero">
            <g id="Group">
                <path d="M43.3,15.6 L28.2,2.7 L28,11 C15.2,10 3.9,18.9 2,31.7 C6.66133815e-16,45 9.3,57.4 22.6,59.4 C35.9,61.4 48.4,52.2 50.3,38.9 C51.1,33.5 50.1,28.1 47.4,23.3 L46.8,22.2 L40.2,26.8 L40.7,27.7 C42.3,30.8 42.9,34.2 42.4,37.7 C41.1,46.6 32.7,52.8 23.8,51.4 C14.9,50.1 8.7,41.8 10,32.9 C11.2,24.5 19.6,18.6 28,19 L28,27.9 L43.3,15.6 Z" id="Shape" fill="#C5C5FF"></path>
                <path d="M26.2,60.5 C25,60.5 23.7,60.4 22.4,60.2 C15.7,59.2 9.8,55.7 5.8,50.3 C1.8,44.9 0.1,38.2 1.1,31.6 C3,18.6 14.1,9.5 27.2,10.1 L27.4,0.9 L44.6,15.7 L27,29.7 L27,19.8 C19,19.8 11.8,25.6 10.7,33 C10.1,37.1 11.1,41.2 13.6,44.5 C16.1,47.8 19.7,50 23.8,50.6 C27.9,51.2 32,50.2 35.3,47.7 C38.6,45.2 40.8,41.6 41.4,37.6 C41.9,34.3 41.3,31 39.8,28.1 L39,26.6 L47,21.1 L48.1,23 C50.9,27.9 52,33.5 51.1,39.1 C50.1,45.7 46.6,51.6 41.2,55.6 C36.8,58.8 31.6,60.5 26.2,60.5 Z M26,11.8 C14.3,11.8 4.5,20.1 2.8,31.9 C1.9,38.1 3.5,44.3 7.2,49.3 C11,54.3 16.5,57.6 22.7,58.6 C28.9,59.5 35.1,58 40.2,54.2 C45.3,50.5 48.6,45 49.5,38.8 C50.3,33.6 49.3,28.4 46.7,23.8 L46.6,23.6 L41.4,27.2 L41.5,27.4 C43.2,30.7 43.9,34.3 43.3,37.9 C42.6,42.4 40.2,46.4 36.5,49.2 C32.8,51.9 28.3,53.1 23.7,52.4 C19.2,51.7 15.1,49.3 12.4,45.6 C9.6,41.9 8.5,37.4 9.2,32.9 C10.5,24.4 18.9,17.9 28.1,18.3 L28.9,18.3 L28.9,26.3 L42,15.6 L29,4.5 L28.8,11.9 L28,11.9 C27.3,11.8 26.7,11.8 26,11.8 Z" id="Shape" fill="#1B1A4E"></path>
            </g>
            <circle id="Oval" fill="#1B1A4E" cx="40.6" cy="53.6" r="14.3"></circle>
            <path d="M36.1,45.7 L46.7,45.7 C46.1,46.7 45.7,47.2 45.6,47.2 L42.8,47.2 C43.2,47.7 43.5,48.2 43.6,48.9 L46.6,48.9 C46.6,48.9 46.7,48.9 46.7,48.9 C46,49.9 45.7,50.4 45.7,50.4 L43.7,50.4 C43.7,50.9 43.4,51.6 42.9,52.3 C42.3,53 41.7,53.5 41.2,53.7 C40.2,54.2 39.2,54.4 38.2,54.4 C38.2,54.5 40.3,57 44.6,62 L41.8,62 C37.6,57.2 35.6,54.7 35.6,54.7 L35.6,53.2 L35.6,53.1 C36,53.2 36.4,53.2 36.9,53.2 C39.2,53.2 40.7,52.4 41.2,50.9 C41.3,50.7 41.3,50.4 41.3,50.2 L35,50.2 C35,50.2 35,50.2 35,50.2 C35.7,49.2 36.1,48.7 36.1,48.7 L41.1,48.7 C40.8,48.1 40.3,47.7 39.4,47.3 C38.8,47.1 38.3,47 37.8,47 L35,47 L35,46.9 C35.7,46.2 36,45.7 36.1,45.7 Z" id="Shape" fill="#FFFFFF"></path>
            <g id="Group" transform="translate(52.000000, 35.000000)">
                <circle id="Oval" fill="#C5C5FF" cx="1.7" cy="7.8" r="1"></circle>
                <path d="M4.5,6.9 C3.6,5.5 2.6,4.4 1.3,3.7 C2.6,3 3.7,1.9 4.5,0.5 C5.2,1.8 6.2,2.9 7.7,3.7 C6.3,4.4 5.3,5.5 4.5,6.9 Z" id="Shape" fill="#1B1A4E"></path>
                <path d="M7,11.1 C6.5,10.2 5.8,9.6 5,9.1 C5.8,8.6 6.5,8 7,7.1 C7.4,7.9 8.1,8.6 9,9.1 C8.2,9.6 7.5,10.3 7,11.1 Z" id="Shape" fill="#1B1A4E"></path>
            </g>
        </g>
    </g>
</svg>
