<?xml version="1.0" encoding="UTF-8"?>
<svg id="instagram"  viewBox="0 0 40 40" version="1.1" xmlns="http://www.w3.org/2000/svg" xmlns:xlink="http://www.w3.org/1999/xlink">
    <!--  51.2 (57519) -  -->
    <title>instagram</title>
    <desc>By RummyCulture.</desc>
    <defs></defs>
    <g id="instagram" stroke="none" stroke-width="1" fill="none" fill-rule="evenodd">
        <g fill="#FAD961" fill-rule="nonzero">
            <ellipse id="Oval" cx="20.0462521" cy="20" rx="3.51408403" ry="3.52"></ellipse>
            <path d="M24.4388571,11.36 L15.6536471,11.36 C14.3757983,11.36 13.2576807,11.76 12.5388908,12.48 C11.8201008,13.2 11.4207731,14.32 11.4207731,15.6 L11.4207731,24.4 C11.4207731,25.68 11.8201008,26.8 12.6187563,27.6 C13.4174118,28.32 14.4556639,28.72 15.7335126,28.72 L24.4388571,28.72 C25.7167059,28.72 26.8348235,28.32 27.5536134,27.6 C28.3522689,26.88 28.7515966,25.76 28.7515966,24.48 L28.7515966,15.68 C28.7515966,14.4 28.3522689,13.36 27.633479,12.56 C26.8348235,11.76 25.7965714,11.36 24.4388571,11.36 Z M20.0462521,25.44 C17.0113613,25.44 14.615395,22.96 14.615395,20 C14.615395,16.96 17.0912269,14.56 20.0462521,14.56 C23.0012773,14.56 25.5569748,16.96 25.5569748,20 C25.5569748,23.04 23.0811429,25.44 20.0462521,25.44 Z M25.7167059,15.6 C24.997916,15.6 24.4388571,15.04 24.4388571,14.32 C24.4388571,13.6 24.997916,13.04 25.7167059,13.04 C26.4354958,13.04 26.9945546,13.6 26.9945546,14.32 C26.9945546,15.04 26.4354958,15.6 25.7167059,15.6 Z" id="Shape"></path>
            <path d="M20.2059832,0.16 C9.34426891,0.16 0.559058824,8.96 0.559058824,19.84 C0.559058824,30.72 9.34426891,39.52 20.2059832,39.52 C31.0676975,39.52 39.8529076,30.72 39.8529076,19.84 C39.9327731,8.96 31.0676975,0.16 20.2059832,0.16 Z M30.6683697,24.48 C30.6683697,26.32 30.0294454,27.92 28.9113277,29.04 C27.7932101,30.16 26.1958992,30.72 24.4388571,30.72 L15.7335126,30.72 C13.9764706,30.72 12.3791597,30.16 11.261042,29.04 C10.0630588,27.92 9.504,26.32 9.504,24.48 L9.504,15.68 C9.504,12 11.9798319,9.44 15.7335126,9.44 L24.5187227,9.44 C26.3556303,9.44 27.8730756,10.08 28.9911933,11.2 C30.1093109,12.32 30.6683697,13.84 30.6683697,15.68 L30.6683697,24.48 Z" id="Shape"></path>
        </g>
    </g>
</svg>
