<?xml version="1.0" encoding="UTF-8"?>
<svg id="rupee" viewBox="0 0 10 15" version="1.1" xmlns="http://www.w3.org/2000/svg" xmlns:xlink="http://www.w3.org/1999/xlink">
    <!--  51.3 (57544) -  -->
    <title>rupee</title>
    <desc>By RummyCulture.</desc>
    <defs></defs>
    <g id="rupee" stroke="none" stroke-width="1" fill="none" fill-rule="evenodd">
        <path d="M0.481927711,3.57142857 L5.14056225,3.57142857 C5.04016064,2.92016807 4.79919679,2.41596639 4.39759036,2.05882353 C3.87550201,1.59663866 3.13253012,1.38655462 2.14859438,1.38655462 L0,1.38655462 L0.441767068,0 L9.97991968,0 L9.53815261,1.38655462 L6.74698795,1.38655462 C7.1686747,1.97478992 7.42971888,2.71008403 7.51004016,3.57142857 L10,3.57142857 L9.55823293,4.95798319 L7.46987952,4.95798319 C7.34939759,5.67226891 7.04819277,6.30252101 6.6064257,6.80672269 C5.96385542,7.4789916 5.12048193,7.94117647 4.0562249,8.19327731 C4.21686747,8.31932773 4.51807229,8.69747899 4.95983936,9.28571429 L9.29718876,15 L6.10441767,15 L2.51004016,10.0420168 C2.18875502,9.57983193 1.84738956,9.24369748 1.48594378,8.99159664 C1.08433735,8.69747899 0.642570281,8.55042017 0.200803213,8.55042017 L0.200803213,6.91176471 L1.44578313,6.91176471 C2.71084337,6.91176471 3.65461847,6.68067227 4.27710843,6.21848739 C4.69879518,5.90336134 4.97991968,5.48319328 5.10040161,4.95798319 L0.0401606426,4.95798319 L0.481927711,3.57142857 Z" id="₹" fill="#FFFFFF"></path>
    </g>
</svg>
