<?xml version="1.0" encoding="UTF-8"?>
<svg id="withdrawal"  viewBox="0 0 72 72" version="1.1" xmlns="http://www.w3.org/2000/svg" xmlns:xlink="http://www.w3.org/1999/xlink">
    <!--  51.2 (57519) -  -->
    <title>withdrawal</title>
    <desc>By RummyCulture.</desc>
    <defs></defs>
    <g id="withdrawal" stroke="none" stroke-width="1" fill="none" fill-rule="evenodd">
        <g transform="translate(4.000000, 17.000000)" fill-rule="nonzero">
            <ellipse id="Oval" fill="#D21A3C" cx="9.90188679" cy="35.03125" rx="1" ry="1"></ellipse>
            <ellipse id="Oval" fill="#D21A3C" cx="9.66037736" cy="25.590625" rx="1.87169811" ry="1.840625"></ellipse>
            <g id="Group" transform="translate(41.660377, 29.687500)">
                <path d="M18.6566038,7.065625 L3.38113208,7.065625 C1.87169811,7.065625 0.664150943,5.878125 0.664150943,4.39375 L0.664150943,3.5625 C0.664150943,2.078125 1.87169811,0.890625 3.38113208,0.890625 L18.5962264,0.890625 C20.1056604,0.890625 21.3132075,2.078125 21.3132075,3.5625 L21.3132075,4.39375 C21.3132075,5.878125 20.1056604,7.065625 18.6566038,7.065625 Z" id="Shape" fill="#FBC03D"></path>
                <path d="M18.2339623,7.778125 L3.80377358,7.778125 C1.69056604,7.778125 0,6.115625 0,4.0375 C0,1.959375 1.69056604,0.296875 3.80377358,0.296875 L18.1735849,0.296875 C20.2867925,0.296875 21.9773585,1.959375 21.9773585,4.0375 C22.0377358,6.115625 20.2867925,7.778125 18.2339623,7.778125 Z M3.80377358,1.603125 C2.4754717,1.603125 1.38867925,2.671875 1.38867925,3.978125 C1.38867925,5.284375 2.4754717,6.353125 3.80377358,6.353125 L18.1735849,6.353125 C19.5018868,6.353125 20.5886792,5.284375 20.5886792,3.978125 C20.5886792,2.671875 19.5018868,1.603125 18.1735849,1.603125 L3.80377358,1.603125 Z" id="Shape" fill="#000000"></path>
            </g>
            <g id="Group" transform="translate(41.660377, 23.156250)">
                <path d="M18.6566038,7.24375 L3.38113208,7.24375 C1.87169811,7.24375 0.664150943,6.05625 0.664150943,4.571875 L0.664150943,3.740625 C0.664150943,2.25625 1.87169811,1.06875 3.38113208,1.06875 L18.5962264,1.06875 C20.1056604,1.06875 21.3132075,2.25625 21.3132075,3.740625 L21.3132075,4.571875 C21.3132075,6.05625 20.1056604,7.24375 18.6566038,7.24375 Z" id="Shape" fill="#FBC03D"></path>
                <path d="M18.2339623,7.896875 L3.80377358,7.896875 C1.69056604,7.896875 0,6.234375 0,4.15625 C0,2.078125 1.69056604,0.415625 3.80377358,0.415625 L18.1735849,0.415625 C20.2867925,0.415625 21.9773585,2.078125 21.9773585,4.15625 C21.9773585,6.234375 20.2867925,7.896875 18.2339623,7.896875 Z M3.80377358,1.78125 C2.4754717,1.78125 1.38867925,2.85 1.38867925,4.15625 C1.38867925,5.4625 2.4754717,6.53125 3.80377358,6.53125 L18.1735849,6.53125 C19.5018868,6.53125 20.5886792,5.4625 20.5886792,4.15625 C20.5886792,2.85 19.5018868,1.78125 18.1735849,1.78125 L3.80377358,1.78125 Z" id="Shape" fill="#000000"></path>
            </g>
            <g id="Group" transform="translate(41.660377, 17.218750)">
                <path d="M18.6566038,6.8875 L3.38113208,6.8875 C1.87169811,6.8875 0.664150943,5.7 0.664150943,4.215625 L0.664150943,3.384375 C0.664150943,1.9 1.87169811,0.7125 3.38113208,0.7125 L18.5962264,0.7125 C20.1056604,0.7125 21.3132075,1.9 21.3132075,3.384375 L21.3132075,4.215625 C21.3132075,5.7 20.1056604,6.8875 18.6566038,6.8875 Z" id="Shape" fill="#FBC03D"></path>
                <path d="M18.2339623,7.540625 L3.80377358,7.540625 C1.69056604,7.540625 0,5.878125 0,3.8 C0,1.721875 1.69056604,0.059375 3.80377358,0.059375 L18.1735849,0.059375 C20.2867925,0.059375 21.9773585,1.721875 21.9773585,3.8 C22.0377358,5.878125 20.2867925,7.540625 18.2339623,7.540625 Z M3.80377358,1.425 C2.4754717,1.425 1.38867925,2.49375 1.38867925,3.8 C1.38867925,5.10625 2.4754717,6.175 3.80377358,6.175 L18.1735849,6.175 C19.5018868,6.175 20.5886792,5.10625 20.5886792,3.8 C20.5886792,2.49375 19.5018868,1.425 18.1735849,1.425 L3.80377358,1.425 Z" id="Shape" fill="#000000"></path>
            </g>
            <path d="M59.8943396,23.39375 L45.645283,23.39375 C44.7396226,23.39375 44.0150943,23.096875 43.4113208,22.265625 L61.9471698,22.265625 C61.9471698,22.265625 61.2830189,23.39375 59.8943396,23.39375 Z" id="Shape" fill="#EA9E06"></path>
            <path d="M59.8943396,29.6875 L45.645283,29.6875 C44.7396226,29.6875 44.0150943,29.390625 43.4113208,28.559375 L61.9471698,28.559375 C61.9471698,28.559375 61.2830189,29.6875 59.8943396,29.6875 Z" id="Shape" fill="#EA9E06"></path>
            <path d="M59.8943396,36.1 L45.645283,36.1 C44.7396226,36.1 44.0150943,35.803125 43.4113208,34.971875 L61.9471698,34.971875 C61.9471698,34.971875 61.2830189,36.1 59.8943396,36.1 Z" id="Shape" fill="#EA9E06"></path>
            <g id="Group">
                <g>
                    <rect id="Rectangle-path" fill="#D21A3C" x="0.966037736" y="1.009375" width="55.7886792" height="12.171875"></rect>
                    <path d="M57.4792453,13.89375 L0.241509434,13.89375 L0.241509434,0.35625 L57.4188679,0.35625 L57.4188679,13.89375 L57.4792453,13.89375 Z M1.63018868,12.528125 L56.0301887,12.528125 L56.0301887,1.721875 L1.63018868,1.721875 L1.63018868,12.528125 Z" id="Shape" fill="#000000"></path>
                </g>
                <path d="M57.4792453,13.89375 L0.241509434,13.89375 L0.241509434,0.35625 L57.4188679,0.35625 L57.4188679,13.89375 L57.4792453,13.89375 Z M1.63018868,12.528125 L56.0301887,12.528125 L56.0301887,1.721875 L1.63018868,1.721875 L1.63018868,12.528125 Z" id="Shape" fill="#000000"></path>
            </g>
            <g id="Group" transform="translate(12.679245, 5.937500)">
                <g>
                    <rect id="Rectangle-path" fill="#0A9B29" transform="translate(16.106264, 15.781816) rotate(-180.000000) translate(-16.106264, -15.781816) " x="0.740226415" y="0.730253125" width="30.7320755" height="30.103125"></rect>
                    <path d="M0.0603773585,31.528125 L0.0603773585,0.11875 L32.1811321,0.11875 L32.1811321,31.528125 L0.0603773585,31.528125 Z M1.4490566,0.95 L1.4490566,30.696875 L30.7924528,30.696875 L30.7924528,0.95 L1.4490566,0.95 Z" id="Shape" fill="#000000"></path>
                </g>
                <polygon id="Shape" fill="#000000" points="21.554717 28.85625 21.554717 27.490625 28.0150943 27.490625 28.0150943 20.603125 29.4037736 20.603125 29.4037736 28.85625"></polygon>
                <polygon id="Shape" fill="#000000" points="2.71698113 28.85625 2.71698113 20.603125 4.10566038 20.603125 4.10566038 27.490625 10.5660377 27.490625 10.5660377 28.85625"></polygon>
                <ellipse id="Oval" fill="#000000" cx="16.4226415" cy="19.534375" rx="1.99245283" ry="1.959375"></ellipse>
                <path d="M10.6264151,0.95 C9.23773585,2.375 8.39245283,4.275 8.39245283,6.4125 C8.39245283,10.80625 12.0150943,14.309375 16.4226415,14.309375 C20.8301887,14.309375 24.4528302,10.746875 24.4528302,6.4125 C24.4528302,4.275 23.6075472,2.375 22.2188679,0.95 L10.6264151,0.95 Z M19.9849057,9.025 C19.5018868,8.728125 19.2603774,8.55 19.2603774,8.55 L19.2603774,7.24375 C19.0188679,7.421875 18.7773585,7.540625 18.4754717,7.6 L18.4754717,8.965625 C18.4754717,8.965625 18.4754717,8.965625 18.4754717,8.965625 C17.9924528,8.66875 17.7509434,8.490625 17.7509434,8.490625 L17.7509434,7.6 C17.509434,7.6 17.2075472,7.48125 16.845283,7.24375 C16.4830189,6.946875 16.3018868,6.709375 16.1811321,6.471875 C15.9396226,5.996875 15.8188679,5.521875 15.8188679,5.10625 C15.7584906,5.10625 14.6113208,6.05625 12.3169811,8.015625 L12.3169811,6.709375 C14.5509434,4.809375 15.6981132,3.859375 15.6981132,3.859375 L16.3622642,3.859375 C16.3622642,4.0375 16.3018868,4.215625 16.3018868,4.453125 C16.3018868,5.521875 16.6641509,6.175 17.3283019,6.4125 C17.4490566,6.471875 17.509434,6.471875 17.6301887,6.471875 L17.6301887,3.5625 C17.6301887,3.5625 17.6301887,3.5625 17.6301887,3.5625 C18.1132075,3.859375 18.354717,4.0375 18.354717,4.0375 L18.354717,6.353125 C18.5962264,6.234375 18.8377358,5.996875 18.9584906,5.58125 C19.0188679,5.284375 19.0792453,5.046875 19.0792453,4.86875 L19.0792453,3.5625 C19.5622642,3.859375 19.8037736,4.0375 19.8037736,4.0375 L19.8037736,9.025 L19.9849057,9.025 Z" id="Shape" fill="#000000"></path>
            </g>
            <path d="M4.89056604,36.8125 C4.10566038,35.625 3.26037736,34.675 2.11320755,34.08125 C3.26037736,33.428125 4.22641509,32.5375 4.89056604,31.35 C5.43396226,32.478125 6.4,33.36875 7.66792453,34.08125 C6.52075472,34.79375 5.61509434,35.684375 4.89056604,36.8125 Z" id="Shape" fill="#000000"></path>
            <path d="M8.57358491,32.5375 C8.21132075,32.003125 7.8490566,31.5875 7.36603774,31.35 C7.8490566,31.053125 8.27169811,30.696875 8.57358491,30.1625 C8.81509434,30.6375 9.23773585,31.053125 9.78113208,31.35 C9.23773585,31.646875 8.8754717,32.0625 8.57358491,32.5375 Z" id="Shape" fill="#000000"></path>
            <rect id="Rectangle-path" fill="#000000" x="7.00377358" y="6.05625" width="42.7471698" height="1.365625"></rect>
        </g>
    </g>
</svg>
