<svg width="121" height="121" viewBox="0 0 121 121" fill="none" xmlns="http://www.w3.org/2000/svg">
<circle cx="60.5" cy="60.5" r="60.5" fill="white"/>
<g clip-path="url(#clip0)">
<path d="M60.5 79.4999C60.3385 79.4999 60.177 79.4666 60.0274 79.4001L32.7149 67.5251C32.2803 67.3375 32 66.91 32 66.4374C32 65.9648 32.2803 65.5373 32.7149 65.3496L46.3949 59.4121C46.9957 59.1485 47.6964 59.4264 47.9576 60.0273C48.2189 60.6281 47.9434 61.3288 47.3425 61.59L36.1681 66.4374L60.5 77.018L84.8319 66.4374L73.6599 61.5876C73.059 61.3264 72.7811 60.6281 73.0448 60.0249C73.3036 59.424 73.9995 59.1438 74.6075 59.4098L88.2875 65.3473C88.7198 65.5373 89 65.9648 89 66.4374C89 66.91 88.7197 67.3375 88.2851 67.5251L60.9726 79.4001C60.823 79.4666 60.6615 79.4999 60.5 79.4999Z" fill="#32B8F0"/>
<path d="M60.5 89.0001C60.3385 89.0001 60.177 88.9668 60.0274 88.9003L32.7149 77.0253C32.2803 76.8377 32 76.4102 32 75.9376V66.4376C32 65.7821 32.532 65.2501 33.1875 65.2501C33.843 65.2501 34.375 65.7821 34.375 66.4376V75.1586L60.5 86.5158L86.625 75.1586V66.4376C86.625 65.7821 87.157 65.2501 87.8125 65.2501C88.468 65.2501 89 65.7821 89 66.4376V75.9376C89 76.4102 88.7197 76.8377 88.2851 77.0253L60.9726 88.9003C60.823 88.9668 60.6615 89.0001 60.5 89.0001Z" fill="#32B8F0"/>
<path d="M60.5 88.9999C59.8445 88.9999 59.3125 88.4679 59.3125 87.8124V78.3124C59.3125 77.6569 59.8445 77.1249 60.5 77.1249C61.1555 77.1249 61.6875 77.6569 61.6875 78.3124V87.8124C61.6875 88.4679 61.1555 88.9999 60.5 88.9999Z" fill="#32B8F0"/>
<path d="M60.5001 65.25C60.1961 65.25 59.8921 65.1336 59.6593 64.9033L46.5968 51.8408C46.2572 51.4988 46.1551 50.9905 46.3403 50.5464C46.5232 50.1023 46.9578 49.8125 47.4376 49.8125H54.5626V34.375C54.5626 33.0664 55.629 32 56.9376 32H64.0626C65.3712 32 66.4376 33.0664 66.4376 34.375V49.8125H73.5626C74.0423 49.8125 74.477 50.1023 74.6598 50.5464C74.8451 50.9905 74.743 51.5011 74.4033 51.8408L61.3408 64.9033C61.1081 65.1336 60.8041 65.25 60.5001 65.25ZM50.3042 52.1875L60.5001 62.3834L70.696 52.1875H65.2501C64.5946 52.1875 64.0626 51.6555 64.0626 51V34.375H56.9376V51C56.9376 51.6555 56.4056 52.1875 55.7501 52.1875H50.3042Z" fill="#32B8F0"/>
</g>
<defs>
<clipPath id="clip0">
<rect width="57" height="57" fill="white" transform="translate(32 32)"/>
</clipPath>
</defs>
</svg>
