<svg width="121" height="121" viewBox="0 0 121 121" fill="none" xmlns="http://www.w3.org/2000/svg">
<circle cx="60.5" cy="60.5" r="60.5" fill="white"/>
<g clip-path="url(#clip0)">
<path d="M85.667 59.514C85.7474 59.514 85.826 59.5202 85.9046 59.5246L86.076 59.5352C86.3174 59.5488 86.5536 59.4607 86.727 59.2923C86.902 59.1242 87.0006 58.8918 87 58.6492V55.2157C87 54.7279 86.6045 54.3324 86.1166 54.3324H71.2281C70.7667 50.2531 73.3092 46.4343 77.2506 45.2862C77.3248 45.2632 77.3999 45.2455 77.4741 45.2279L77.6508 45.1819C78.1226 45.0577 78.4044 44.5746 78.2801 44.1028C78.2767 44.09 78.2731 44.0772 78.2691 44.0645L77.2436 40.7873C77.1728 40.5604 77.0136 40.3716 76.8019 40.2635C76.5897 40.1551 76.3424 40.1379 76.1173 40.2158L34.6007 54.3792C34.5909 54.3792 34.5848 54.3907 34.5742 54.3942C34.5159 54.4204 34.4605 54.4526 34.409 54.4905C34.3644 54.5167 34.3219 54.5461 34.2818 54.5788C34.2446 54.6201 34.2109 54.6644 34.1811 54.7113C34.1454 54.7555 34.1137 54.8028 34.0866 54.8527C34.069 54.9002 34.0556 54.9493 34.0468 54.9993C34.0262 55.0597 34.0126 55.1222 34.0062 55.1857C34.0062 55.1963 34 55.2051 34 55.2157V79.949C34 80.4369 34.3955 80.8324 34.8833 80.8324H86.1166C86.6045 80.8324 87 80.4369 87 79.949V76.5155C87.0005 76.0277 86.6054 75.6318 86.1175 75.6313C86.1036 75.6313 86.0898 75.6316 86.076 75.6322L85.9046 75.6428C85.826 75.6472 85.7474 75.6534 85.667 75.6534C81.0794 75.7772 77.2551 72.1685 77.1128 67.5815C77.2575 62.9962 81.0811 59.3901 85.667 59.514ZM57.0797 48.5775L57.7281 50.2558C57.8596 50.5964 58.1871 50.8211 58.5522 50.8211C59.0401 50.8213 59.4358 50.4261 59.4359 49.9381C59.4359 49.8289 59.4158 49.7207 59.3764 49.6189L58.7536 48.0042L75.8285 42.1742L76.3116 43.7368C71.849 45.2595 69.0109 49.6417 69.4464 54.3368H61.1934L60.3295 52.094C60.1536 51.6386 59.6418 51.412 59.1865 51.5879C58.7311 51.7638 58.5044 52.2755 58.6803 52.7309L59.2987 54.3333H40.2081L57.0797 48.5775ZM75.3462 67.5824C75.4772 72.9782 79.8368 77.3124 85.2333 77.4121V79.0657H67.5666V76.4157C67.5666 75.9279 67.1711 75.5324 66.6833 75.5324C66.1955 75.5324 65.8 75.9279 65.8 76.4157V79.0657H35.7667V56.099H65.8V58.749C65.8 59.2369 66.1955 59.6324 66.6833 59.6324C67.1711 59.6324 67.5666 59.2369 67.5666 58.749V56.099H85.2333V57.7526C79.837 57.8528 75.4777 62.1868 75.3462 67.5824Z" fill="#c72026"/>
<path d="M66.6834 61.399C66.1956 61.399 65.8 61.7946 65.8 62.2824V65.8157C65.8 66.3035 66.1956 66.699 66.6834 66.699C67.1712 66.699 67.5667 66.3035 67.5667 65.8157V62.2824C67.5667 61.7946 67.1712 61.399 66.6834 61.399Z" fill="#c72026"/>
<path d="M66.6834 68.4657C66.1956 68.4657 65.8 68.8612 65.8 69.349V72.8824C65.8 73.3702 66.1956 73.7657 66.6834 73.7657C67.1712 73.7657 67.5667 73.3702 67.5667 72.8824V69.349C67.5667 68.8612 67.1712 68.4657 66.6834 68.4657Z" fill="#c72026"/>
<path d="M47.2501 57.8657H38.4168C37.929 57.8657 37.5334 58.2612 37.5334 58.7491C37.5334 59.2369 37.929 59.6324 38.4168 59.6324H47.2501C47.7379 59.6324 48.1334 59.2369 48.1334 58.7491C48.1334 58.2612 47.7379 57.8657 47.2501 57.8657Z" fill="#c72026"/>
<path d="M52.5501 61.399H38.4168C37.929 61.399 37.5334 61.7946 37.5334 62.2824C37.5334 62.7702 37.929 63.1657 38.4168 63.1657H52.5501C53.0379 63.1657 53.4334 62.7702 53.4334 62.2824C53.4334 61.7946 53.0379 61.399 52.5501 61.399Z" fill="#c72026"/>
<path d="M52.5501 64.9324H38.4168C37.929 64.9324 37.5334 65.3279 37.5334 65.8157C37.5334 66.3035 37.929 66.699 38.4168 66.699H52.5501C53.0379 66.699 53.4334 66.3035 53.4334 65.8157C53.4334 65.3279 53.0379 64.9324 52.5501 64.9324Z" fill="#c72026"/>
<path d="M52.5501 68.4657H38.4168C37.929 68.4657 37.5334 68.8612 37.5334 69.349C37.5334 69.8368 37.929 70.2324 38.4168 70.2324H52.5501C53.0379 70.2324 53.4334 69.8368 53.4334 69.349C53.4334 68.8612 53.0379 68.4657 52.5501 68.4657Z" fill="#c72026"/>
<path d="M49.9001 71.999H38.4168C37.929 71.999 37.5334 72.3945 37.5334 72.8824V76.4157C37.5334 76.9035 37.929 77.299 38.4168 77.299H49.9001C50.3879 77.299 50.7834 76.9035 50.7834 76.4157V72.8824C50.7834 72.3945 50.3879 71.999 49.9001 71.999ZM49.0168 75.5324H39.3001V73.7657H49.0168V75.5324Z" fill="#c72026"/>
</g>
<defs>
<clipPath id="clip0">
<rect width="53" height="53" fill="white" transform="translate(34 34)"/>
</clipPath>
</defs>
</svg>
