<svg width="121" height="121" viewBox="0 0 121 121" fill="none" xmlns="http://www.w3.org/2000/svg">
<circle cx="60.5" cy="60.5" r="60.5" fill="white"/>
<g clip-path="url(#clip0)">
<path d="M85.6198 71.9347C84.6312 70.4818 82.9541 70.127 81.1322 70.9844L80.1666 71.4095C81.6892 68.1643 81.8781 64.5467 81.1201 61.1297C80.2497 57.2051 78.1472 53.4032 74.8711 49.8295C74.5815 49.5135 74.0905 49.4921 73.7743 49.7819C73.4583 50.0715 73.437 50.5625 73.7267 50.8786C76.8163 54.2487 78.7938 57.8108 79.6046 61.4658C80.4585 65.3158 79.9617 69.2863 77.7826 72.4592L68.1202 76.7135L68.1282 75.6223C68.1284 75.5947 68.1272 75.5672 68.1244 75.5398C67.9013 73.2969 66.1869 71.5099 63.9552 71.1942C63.9485 71.1932 63.9419 71.1923 63.9352 71.1916L55.3474 70.2028C52.0452 69.7328 51.1947 67.7539 46.7224 66.6254C46.4134 64.0034 46.8253 61.2117 47.9542 58.4129C49.6545 54.198 52.9807 50.1029 57.592 46.5385C59.3106 47.7571 66.9783 47.9088 68.6942 46.3368C69.5733 47.0043 70.4123 47.6923 71.1938 48.3887C71.3417 48.5205 71.5262 48.5853 71.7099 48.5853C71.9236 48.5853 72.1364 48.4977 72.2897 48.3255C72.5749 48.0054 72.5466 47.5148 72.2265 47.2296C71.3698 46.4664 70.4483 45.7133 69.4818 44.9855C69.7083 44.0251 69.3913 42.901 68.5549 42.2319C70.9853 38.5455 71.6922 36.1326 70.7158 34.8685C70.0451 34.0001 69.2108 34.4076 68.8545 34.5817C68.2505 34.8766 67.9213 34.8921 67.3656 34.5285C66.3055 33.8349 65.1912 33.8125 64.097 34.5285C63.5343 34.8967 63.0911 34.8967 62.5286 34.5285C61.4684 33.8349 60.3546 33.8125 59.2601 34.5285C58.698 34.8964 58.3675 34.8737 57.7731 34.5782C57.4172 34.4013 56.5838 33.987 55.9089 34.8555C54.9544 36.0841 55.593 38.4208 57.8594 41.9819C57.7206 42.0569 57.5883 42.145 57.4648 42.2456C56.5634 41.2937 55.0866 40.3009 52.9508 40.5394C51.1794 40.7376 49.8731 40.1522 49.0891 39.6264C48.733 39.3879 48.2508 39.4829 48.0121 39.8388C47.7734 40.1949 47.8685 40.6771 48.2245 40.9158C49.224 41.5858 50.885 42.3318 53.1231 42.0822C54.7731 41.8971 55.8927 42.7403 56.5897 43.5985C56.5802 43.6316 56.5714 43.6649 56.5632 43.6983C55.9687 43.7076 55.0803 43.7631 54.1018 43.9666C51.7487 44.4561 50.002 45.5744 49.0504 47.2008C48.8339 47.5708 48.9583 48.0463 49.3283 48.2629C49.6984 48.4793 50.1738 48.3548 50.3903 47.9848C51.8057 45.5658 55.2608 45.2699 56.6331 45.2514C56.639 45.2685 56.6459 45.2854 56.6521 45.3023C51.755 49.0799 48.3456 53.2927 46.5146 57.8319C45.3573 60.701 44.895 63.5754 45.1297 66.3071C44.3853 66.197 43.6324 66.1379 42.8758 66.1327V65.6632C42.8758 64.4212 41.8652 63.4107 40.6232 63.4107H37.0597C35.8176 63.4107 34.8071 64.4213 34.8071 65.6632V83.7416C34.8071 84.9838 35.8176 85.9942 37.0597 85.9942H40.6231C41.8651 85.9942 42.8757 84.9837 42.8757 83.7416V83.5205L50.6487 86.4137C51.6933 86.8024 52.7881 86.9996 53.9027 86.9996H65.4846C67.2553 86.9996 68.9819 86.4986 70.4775 85.5509C85.9281 75.7562 84.9898 76.3656 85.0791 76.2865C86.3237 75.1818 86.5561 73.3109 85.6198 71.9347ZM67.2375 45.4169C64.3989 46.1337 61.639 46.1337 58.7998 45.4169C57.5815 45.109 57.9345 42.9362 59.2438 43.2645C61.7838 43.9022 64.2533 43.9022 66.7936 43.2645C68.0801 42.9416 68.4754 45.1041 67.2375 45.4169ZM57.0641 35.9596C57.0702 35.9626 57.0763 35.9658 57.0821 35.9686C58.1327 36.4908 59.0533 36.5191 60.1101 35.8278C61.4326 34.9621 61.5762 36.3501 63.3126 36.3501C64.1486 36.3501 64.61 36.0483 64.9468 35.8278C65.5097 35.4595 65.9529 35.4597 66.5156 35.8278C67.5771 36.5224 68.4754 36.4881 69.5565 35.9667C69.7162 36.5424 69.3547 38.2588 67.053 41.6858C65.91 41.6664 64.2512 42.789 59.5555 41.744C57.2587 38.2727 56.9036 36.5396 57.0641 35.9596ZM84.0905 75.0875L69.6466 84.2401C68.3999 85.03 66.9607 85.4477 65.4847 85.4477H53.9028C52.9737 85.4477 52.0611 85.2833 51.1903 84.9592L42.8757 81.8644V73.505C42.8757 73.0762 42.5282 72.7287 42.0995 72.7287C41.6708 72.7287 41.3233 73.0762 41.3233 73.505V83.7421C41.3233 84.1282 41.0092 84.4422 40.6232 84.4422H37.0597C36.6736 84.4422 36.3596 84.1281 36.3596 83.7421V65.6637C36.3596 65.2775 36.6736 64.9636 37.0597 64.9636H40.6231C41.0092 64.9636 41.3232 65.2777 41.3232 65.6637V69.8761C41.3232 70.3049 41.6707 70.6524 42.0994 70.6524C42.528 70.6524 42.8756 70.3049 42.8756 69.8761V67.6855C49.2967 67.7347 50.7405 71.1191 55.1397 71.7414C55.1463 71.7424 55.1529 71.7432 55.1595 71.744L63.7469 72.7326C65.2506 72.9497 66.4078 74.1471 66.5752 75.6546L66.5645 77.1311H58.556C58.1273 77.1311 57.7797 77.4786 57.7797 77.9074C57.7797 78.3362 58.1272 78.6837 58.556 78.6837H67.3351C67.4331 78.6837 67.5463 78.6619 67.6449 78.619C67.6607 78.6119 81.7502 72.4085 81.7667 72.4013C82.7823 71.95 83.7082 71.8855 84.3362 72.8082C84.8243 73.5253 84.7163 74.4947 84.0905 75.0875Z" fill="#c72026"/>
<path d="M67.125 54.9792H60.5V56.3715H62.8363C63.6943 56.3715 64.4261 56.9534 64.6977 57.7637H60.5V59.156H64.6977C64.4261 59.9663 63.6943 60.5482 62.8363 60.5482H60.5V61.9405L64.3574 66.0209L65.2881 65.0364L62.3614 61.9405H62.8363C64.4254 61.9405 65.755 60.7428 66.0607 59.156H67.125V57.7637H66.0607C65.9617 57.2496 65.7551 56.7764 65.4671 56.3715H67.125V54.9792Z" fill="#c72026"/>
</g>
<defs>
<clipPath id="clip0">
<rect width="53" height="53" fill="white" transform="translate(34 34)"/>
</clipPath>
</defs>
</svg>
