<?xml version="1.0" encoding="UTF-8"?>
<svg id="customer" viewBox="0 0 72 72" version="1.1" xmlns="http://www.w3.org/2000/svg" xmlns:xlink="http://www.w3.org/1999/xlink">
    <!--  51.2 (57519) -  -->
    <title>customer</title>
    <desc>By RummyCulture.</desc>
    <defs></defs>
    <g id="customer" stroke="none" stroke-width="1" fill="none" fill-rule="evenodd">
        <g transform="translate(9.000000, 10.000000)" fill-rule="nonzero">
            <g id="Group" transform="translate(13.800000, 0.000000)">
                <g id="Shape">
                    <path d="M18.72,31.6172414 C15.6,27.5965517 13.98,23.1494253 13.08,20.6517241 L12.48,18.5195402 C12.9,18.2149425 16.14,15.9609195 17.64,14.6206897 C19.5,12.9758621 17.82,10.7827586 17.82,10.7827586 C17.82,10.7827586 13.26,3.53333333 12.18,2.07126437 C11.1,0.609195402 9.42,0.913793103 9.42,0.913793103 C6.24,2.13218391 2.94,3.10689655 1.14,10.7218391 C-0.42,17.9103448 3.36,26.5609195 7.92,33.5666667 C12.36,41.3643678 18.96,49.6494253 26.7,51.3551724 C34.32,52.8781609 36.54,50.2586207 38.94,47.8218391 C38.94,47.8218391 39.9,46.4206897 39.06,44.7758621 C38.22,43.191954 33.6,35.9425287 33.6,35.9425287 C33.6,35.9425287 32.34,33.4448276 30.06,34.4804598 C28.38,35.2724138 25.32,37.1 24.54,37.5264368 C24.6,37.5873563 20.82,34.2977011 18.72,31.6172414 Z" fill="#D21A3C"></path>
                    <path d="M7.38,33.9931034 C3.3,27.7183908 -1.26,18.5195402 0.48,10.5390805 C2.34,2.80229885 5.64,1.58390805 8.82,0.365517241 L9.18,0.243678161 L9.3,0.182758621 C9.36,0.182758621 11.4,-0.182758621 12.72,1.64482759 C13.8,3.10689655 18.18,10.1126437 18.36,10.3563218 C19.08,11.3310345 19.98,13.5241379 18.12,15.1689655 C16.92,16.2045977 14.58,17.9103448 13.32,18.8241379 L13.74,20.408046 C15.18,24.7333333 16.98,28.2666667 19.26,31.1298851 C20.88,33.262069 23.7,35.8206897 24.66,36.6735632 C25.86,35.9425287 28.32,34.4804598 29.82,33.8103448 C32.04,32.7747126 33.66,34.5413793 34.2,35.516092 C34.38,35.8206897 38.82,42.8264368 39.66,44.4103448 C40.74,46.3597701 39.54,48.1264368 39.48,48.1873563 L39.12,48.5528736 C36.72,50.9896552 34.2,53.5482759 26.52,51.9643678 C26.52,51.9643678 26.52,51.9643678 26.52,51.9643678 C17.7,50.1367816 10.74,39.9022989 7.38,33.9931034 Z M38.46,45.2022989 C37.62,43.6183908 33.12,36.4298851 33,36.308046 C32.94,36.2471264 31.98,34.4195402 30.36,35.1505747 C28.74,35.8816092 25.8,37.6482759 24.9,38.1965517 C24.42,38.5011494 24.42,38.5011494 21.9,36.1252874 C20.28,34.5413793 19.02,33.2011494 18.12,32.0436782 C15.78,28.9977011 13.92,25.4034483 12.36,20.8344828 L11.76,18.7022989 L11.64,18.2149425 L12.06,17.9103448 C13.14,17.1183908 15.84,15.2298851 17.16,14.0724138 C18.48,12.9149425 17.34,11.3310345 17.16,11.1482759 C17.1,11.0873563 12.6,3.89885057 11.52,2.43678161 C10.8,1.46206897 9.72,1.52298851 9.48,1.52298851 L9.18,1.64482759 C6.18,2.74137931 3.36,3.83793103 1.68,10.8436782 C0.06,18.2758621 4.44,27.1091954 8.4,33.2011494 C11.64,38.9275862 18.36,48.7965517 26.7,50.6850575 C26.7,50.6850575 26.7,50.6850575 26.7,50.6850575 C33.66,52.0862069 35.82,49.8931034 38.04,47.6390805 L38.28,47.3954023 C38.52,47.2126437 39.06,46.2988506 38.46,45.2022989 Z" fill="#000000"></path>
                </g>
                <polygon id="Shape" fill="#000000" points="16.08 15.9609195 17.04 15.2298851 8.28 1.34022989 7.14 1.88850575"></polygon>
                <polygon id="Shape" fill="#000000" points="36.9 49.7712644 37.86 48.9793103 29.16 35.0896552 28.02 35.637931"></polygon>
            </g>
            <g id="Group" transform="translate(0.000000, 24.367816)">
                <ellipse id="Oval" fill="#0A9B29" cx="13.68" cy="14.2551724" rx="12.9" ry="13.0977011"></ellipse>
                <path d="M0.12,14.2551724 C0.12,6.64022989 6.24,0.487356322 13.68,0.487356322 C21.12,0.487356322 27.24,6.70114943 27.24,14.2551724 C27.24,21.8091954 21.18,28.0229885 13.68,28.0229885 C6.18,28.0229885 0.12,21.8701149 0.12,14.2551724 Z M1.38,14.2551724 C1.38,21.1390805 6.9,26.6827586 13.62,26.6827586 C20.34,26.6827586 25.86,21.0781609 25.86,14.2551724 C25.86,7.43218391 20.34,1.82758621 13.62,1.82758621 C6.9,1.82758621 1.38,7.37126437 1.38,14.2551724 Z" id="Shape" fill="#000000"></path>
            </g>
            <rect id="Rectangle-path" fill="#000000" x="13.02" y="25.8908046" width="1.32" height="2.37586207"></rect>
            <rect id="Rectangle-path" fill="#000000" x="13.02" y="49.1011494" width="1.32" height="2.37586207"></rect>
            <rect id="Rectangle-path" fill="#000000" x="1.08" y="37.9528736" width="2.34" height="1.34022989"></rect>
            <rect id="Rectangle-path" fill="#000000" x="24.12" y="37.9528736" width="2.34" height="1.34022989"></rect>
            <ellipse id="Oval" stroke="#000000" stroke-width="1.20000005" fill="#FBC03D" cx="13.68" cy="38.6229885" rx="7.8" ry="7.91954023"></ellipse>
            <g id="Group" transform="translate(9.000000, 34.724138)" fill="#000000">
                <g id="Shape">
                    <path d="M0.42,6.57931034 L0.42,6.09195402 L1.02,5.48275862 C2.52,4.02068966 3.18,3.28965517 3.18,2.37586207 C3.18,1.76666667 2.88,1.2183908 2.04,1.2183908 C1.5,1.2183908 1.08,1.52298851 0.78,1.70574713 L0.54,1.15747126 C0.96,0.791954023 1.5,0.548275862 2.22,0.548275862 C3.48,0.548275862 4.02,1.40114943 4.02,2.25402299 C4.02,3.35057471 3.24,4.26436782 1.98,5.42183908 L1.5,5.84827586 L4.14,5.84827586 L4.14,6.5183908 L0.42,6.5183908 L0.42,6.57931034 Z"></path>
                    <path d="M4.38,6.88390805 L0.12,6.88390805 L0.12,6.03103448 L0.84,5.36091954 C2.34,3.89885057 2.94,3.22873563 2.94,2.43678161 C2.94,1.82758621 2.64,1.52298851 2.04,1.52298851 C1.56,1.52298851 1.14,1.82758621 0.96,1.94942529 L0.72,2.13218391 L0.24,1.09655172 L0.36,0.974712644 C0.84,0.548275862 1.5,0.304597701 2.16,0.304597701 C3.54,0.304597701 4.2,1.27931034 4.2,2.31494253 C4.2,3.53333333 3.3,4.50804598 2.1,5.66551724 L2.04,5.72643678 L4.32,5.72643678 L4.32,6.88390805 L4.38,6.88390805 Z M0.66,6.33563218 L3.9,6.33563218 L3.9,6.15287356 L1.26,6.15287356 L1.26,5.78735632 L1.32,5.66551724 L1.8,5.23908046 C3.12,3.95977011 3.72,3.16781609 3.72,2.19310345 C3.72,1.52298851 3.3,0.731034483 2.16,0.731034483 C1.68,0.731034483 1.2,0.913793103 0.78,1.15747126 L0.84,1.27931034 C1.14,1.09655172 1.5,0.913793103 1.98,0.913793103 C2.88,0.913793103 3.36,1.46206897 3.36,2.31494253 C3.36,3.35057471 2.64,4.14252874 1.08,5.6045977 L0.54,6.15287356 L0.54,6.33563218 L0.66,6.33563218 Z"></path>
                </g>
                <g transform="translate(4.200000, 0.000000)" id="Shape">
                    <path d="M3.54,6.57931034 L3.54,4.93448276 L0.84,4.93448276 L0.84,4.3862069 L3.48,0.609195402 L4.32,0.609195402 L4.32,4.32528736 L5.16,4.32528736 L5.16,4.93448276 L4.32,4.93448276 L4.32,6.57931034 L3.54,6.57931034 Z M3.54,4.32528736 L3.54,2.31494253 C3.54,2.01034483 3.54,1.70574713 3.54,1.40114943 C3.36,1.76666667 3.24,2.01034483 3.06,2.25402299 L1.62,4.26436782 L3.54,4.26436782 L3.54,4.32528736 Z"></path>
                    <path d="M4.5,6.88390805 L3.24,6.88390805 L3.24,5.23908046 L0.54,5.23908046 L0.54,4.3862069 L3.3,0.426436782 L4.5,0.426436782 L4.5,4.14252874 L5.34,4.14252874 L5.34,5.3 L4.5,5.3 L4.5,6.88390805 Z M3.78,6.33563218 L4.02,6.33563218 L4.02,4.6908046 L4.86,4.6908046 L4.86,4.56896552 L4.02,4.56896552 L4.02,0.852873563 L3.54,0.852873563 L1.02,4.50804598 L1.02,4.6908046 L3.72,4.6908046 L3.72,6.33563218 L3.78,6.33563218 Z M3.78,4.62988506 L1.38,4.62988506 L1.38,4.26436782 L1.44,4.20344828 L2.88,2.19310345 C3,1.94942529 3.18,1.70574713 3.36,1.34022989 L3.42,1.2183908 L3.84,1.2183908 L3.84,1.46206897 C3.84,1.76666667 3.84,2.07126437 3.84,2.37586207 L3.84,4.62988506 L3.78,4.62988506 Z M2.04,4.0816092 L3.24,4.0816092 L3.24,2.37586207 C3.24,2.37586207 3.24,2.43678161 3.18,2.43678161 L2.04,4.0816092 Z"></path>
                </g>
            </g>
            <ellipse id="Oval" fill="#D21A3C" cx="11.76" cy="19.1896552" rx="1" ry="1"></ellipse>
            <path d="M7.8,20.8954023 C7.14,19.8597701 6.36,19.0068966 5.46,18.5195402 C6.48,17.9712644 7.26,17.1793103 7.8,16.1436782 C8.28,17.1793103 9.12,17.9103448 10.14,18.5195402 C9.18,19.0678161 8.4,19.9206897 7.8,20.8954023 Z" id="Shape" fill="#000000"></path>
            <path d="M10.56,23.2103448 C10.2,22.6011494 9.78,22.1747126 9.24,21.8701149 C9.78,21.5655172 10.26,21.0781609 10.56,20.5298851 C10.86,21.0781609 11.28,21.5655172 11.88,21.8701149 C11.34,22.1747126 10.92,22.662069 10.56,23.2103448 Z" id="Shape" fill="#000000"></path>
        </g>
    </g>
</svg>
