<?xml version="1.0" encoding="UTF-8"?>
<svg id="facebook" viewBox="0 0 40 40" version="1.1" xmlns="http://www.w3.org/2000/svg" xmlns:xlink="http://www.w3.org/1999/xlink">
    <!--  51.2 (57519) -  -->
    <title>facebook</title>
    <desc>By RummyCulture.</desc>
    <defs></defs>
    <g id="facebook" stroke="none" stroke-width="1" fill="none" fill-rule="evenodd">
        <g fill="#FAD961" fill-rule="nonzero" id="Shape">
            <path d="M19.6668908,0 C8.80517647,0 0,8.8216 0,19.7 C0,30.58 8.80517647,39.3984 19.6668908,39.3984 C30.528605,39.3984 39.3337815,30.58 39.3337815,19.7 C39.3337815,8.8216 30.5278064,0 19.6668908,0 Z M24.8717284,19.6176 L21.4662615,19.6176 C21.4662615,25.0688 21.4662615,31.7832 21.4662615,31.7832 L16.418759,31.7832 C16.418759,31.7832 16.418759,25.1376 16.418759,19.6176 L14.0180007,19.6176 L14.0180007,15.3224 L16.418759,15.3224 L16.418759,12.5392 C16.418759,10.5472 17.3627697,7.4376 21.5133822,7.4376 L25.2510897,7.452 L25.2510897,11.624 C25.2510897,11.624 22.9781163,11.624 22.5372585,11.624 C22.0940047,11.624 21.4670602,11.8456 21.4670602,12.7928 L21.4670602,15.3232 L25.3149822,15.3232 L24.8717284,19.6176 Z"></path>
        </g>
    </g>
</svg>
