<svg xmlns="http://www.w3.org/2000/svg" width="172" height="57" viewBox="0 0 172 57"><g transform="translate(-274 -161)"><rect width="172" height="57" rx="10" transform="translate(274 161)"/><g transform="translate(231.335 168.991)"><g transform="translate(60.315 15.674)"><g transform="translate(0)"><path d="M156.967,192.034H139.554a.871.871,0,0,0-.871.871v13.931a4.361,4.361,0,0,0,3.483,4.266v4.44a2.612,2.612,0,1,0,5.224,0v-4.353h1.741v4.353a2.612,2.612,0,1,0,5.224,0V211.1a4.359,4.359,0,0,0,3.483-4.266V192.9A.87.87,0,0,0,156.967,192.034Z" transform="translate(-138.683 -192.034)" fill="#fff"/></g></g><g transform="translate(60.315 -0.001)"><g transform="translate(0 0)"><path d="M152.818,4.64l1.468-3.425a.87.87,0,0,0-1.6-.684l-1.468,3.427a9.489,9.489,0,0,0-5.91,0L143.837.53a.869.869,0,1,0-1.6.684l1.468,3.425a9.584,9.584,0,0,0-5.022,8.423.871.871,0,0,0,.871.871h17.413a.871.871,0,0,0,.871-.871A9.586,9.586,0,0,0,152.818,4.64Zm-8.04,5.811a.871.871,0,1,1,.871-.871A.871.871,0,0,1,144.779,10.45Zm6.965,0a.871.871,0,1,1,.871-.871A.871.871,0,0,1,151.744,10.45Z" transform="translate(-138.684 0.001)" fill="#fff"/></g></g><g transform="translate(81.212 15.674)"><path d="M397.3,192.034a2.615,2.615,0,0,0-2.612,2.612v8.707a2.612,2.612,0,0,0,5.224,0v-8.707A2.615,2.615,0,0,0,397.3,192.034Z" transform="translate(-394.684 -192.034)" fill="#fff"/></g><g transform="translate(53.35 15.674)"><g transform="translate(0)"><path d="M55.962,192.034a2.615,2.615,0,0,0-2.612,2.612v8.707a2.612,2.612,0,0,0,5.224,0v-8.707A2.615,2.615,0,0,0,55.962,192.034Z" transform="translate(-53.35 -192.034)" fill="#fff"/></g></g></g><path d="M.908,0V-7.82H3.115a3.554,3.554,0,0,1,1.8.451A3.051,3.051,0,0,1,6.131-6.085a4.178,4.178,0,0,1,.432,1.912v.5a4.193,4.193,0,0,1-.427,1.939A3,3,0,0,1,4.917-.457,3.78,3.78,0,0,1,3.072,0ZM1.939-6.972V-.843H3.024A2.362,2.362,0,0,0,4.88-1.584,3.061,3.061,0,0,0,5.543-3.7v-.457a3.109,3.109,0,0,0-.626-2.071,2.228,2.228,0,0,0-1.775-.749ZM7.7-2.959A3.433,3.433,0,0,1,8.038-4.5a2.5,2.5,0,0,1,.935-1.053,2.544,2.544,0,0,1,1.367-.371,2.451,2.451,0,0,1,1.92.822,3.162,3.162,0,0,1,.733,2.186v.07a3.462,3.462,0,0,1-.325,1.523,2.467,2.467,0,0,1-.929,1.05A2.573,2.573,0,0,1,10.35.107,2.445,2.445,0,0,1,8.435-.714,3.146,3.146,0,0,1,7.7-2.89Zm1,.118A2.486,2.486,0,0,0,9.15-1.289a1.435,1.435,0,0,0,1.2.585,1.427,1.427,0,0,0,1.2-.594A2.719,2.719,0,0,0,12-2.959a2.482,2.482,0,0,0-.454-1.55A1.443,1.443,0,0,0,10.339-5.1a1.427,1.427,0,0,0-1.187.585A2.7,2.7,0,0,0,8.7-2.841ZM19.384-1.37,20.5-5.812H21.5L19.8,0H19L17.585-4.4,16.21,0H15.4L13.718-5.812h.988L15.85-1.461,17.2-5.812H18Zm4.061-4.442.032.73a2.118,2.118,0,0,1,1.74-.838q1.842,0,1.858,2.079V0h-.994V-3.846a1.338,1.338,0,0,0-.287-.929,1.152,1.152,0,0,0-.878-.3,1.434,1.434,0,0,0-.849.258,1.751,1.751,0,0,0-.569.677V0H22.5V-5.812ZM29.654,0H28.66V-8.25h.994ZM30.98-2.959A3.433,3.433,0,0,1,31.316-4.5a2.5,2.5,0,0,1,.935-1.053,2.544,2.544,0,0,1,1.367-.371,2.451,2.451,0,0,1,1.92.822,3.162,3.162,0,0,1,.733,2.186v.07a3.463,3.463,0,0,1-.325,1.523,2.467,2.467,0,0,1-.929,1.05,2.573,2.573,0,0,1-1.388.376,2.445,2.445,0,0,1-1.915-.822A3.146,3.146,0,0,1,30.98-2.89Zm1,.118a2.486,2.486,0,0,0,.448,1.552,1.435,1.435,0,0,0,1.2.585,1.427,1.427,0,0,0,1.2-.594,2.719,2.719,0,0,0,.446-1.662,2.482,2.482,0,0,0-.454-1.55A1.443,1.443,0,0,0,33.618-5.1a1.427,1.427,0,0,0-1.187.585A2.7,2.7,0,0,0,31.979-2.841ZM41.1,0a2.087,2.087,0,0,1-.14-.612,2.217,2.217,0,0,1-1.654.72A2.051,2.051,0,0,1,37.9-.379a1.573,1.573,0,0,1-.551-1.233,1.643,1.643,0,0,1,.69-1.41,3.254,3.254,0,0,1,1.942-.5h.967V-3.98a1.116,1.116,0,0,0-.312-.83,1.252,1.252,0,0,0-.918-.309,1.449,1.449,0,0,0-.892.269.791.791,0,0,0-.36.65h-1a1.371,1.371,0,0,1,.309-.841,2.108,2.108,0,0,1,.838-.642,2.819,2.819,0,0,1,1.163-.236,2.3,2.3,0,0,1,1.574.5,1.812,1.812,0,0,1,.591,1.383v2.675a3.27,3.27,0,0,0,.2,1.273V0ZM39.456-.757A1.746,1.746,0,0,0,40.342-1a1.462,1.462,0,0,0,.607-.628V-2.82H40.17q-1.826,0-1.826,1.069a.9.9,0,0,0,.312.73A1.2,1.2,0,0,0,39.456-.757Zm3.8-2.2a3.4,3.4,0,0,1,.634-2.151,2,2,0,0,1,1.66-.814,2.016,2.016,0,0,1,1.617.7V-8.25h.994V0H47.25L47.2-.623a2.024,2.024,0,0,1-1.66.73A1.985,1.985,0,0,1,43.9-.72a3.443,3.443,0,0,1-.636-2.159Zm.994.113a2.578,2.578,0,0,0,.408,1.547,1.32,1.32,0,0,0,1.128.559,1.45,1.45,0,0,0,1.38-.849V-4.254a1.461,1.461,0,0,0-1.37-.822,1.326,1.326,0,0,0-1.139.564A2.838,2.838,0,0,0,44.252-2.841ZM58.6-3.658a4.838,4.838,0,0,1-.387,2.006,2.929,2.929,0,0,1-1.1,1.308,3.015,3.015,0,0,1-1.654.451,2.989,2.989,0,0,1-1.638-.454,3,3,0,0,1-1.109-1.294,4.642,4.642,0,0,1-.406-1.947v-.564A4.78,4.78,0,0,1,52.7-6.145,2.989,2.989,0,0,1,53.81-7.469a2.976,2.976,0,0,1,1.641-.459,3.032,3.032,0,0,1,1.657.454,2.924,2.924,0,0,1,1.1,1.316A4.861,4.861,0,0,1,58.6-4.152Zm-1.026-.5A3.506,3.506,0,0,0,57.014-6.3a1.842,1.842,0,0,0-1.563-.744,1.823,1.823,0,0,0-1.539.744,3.434,3.434,0,0,0-.577,2.065v.575A3.511,3.511,0,0,0,53.9-1.539a1.83,1.83,0,0,0,1.56.771A1.823,1.823,0,0,0,57.009-1.5a3.492,3.492,0,0,0,.564-2.087Zm6,3.588a2.111,2.111,0,0,1-1.7.682,1.807,1.807,0,0,1-1.415-.54,2.336,2.336,0,0,1-.491-1.6V-5.812h.994v3.754q0,1.321,1.074,1.321a1.487,1.487,0,0,0,1.515-.849V-5.812h.994V0H63.6ZM68.863-4.92a2.978,2.978,0,0,0-.489-.038,1.309,1.309,0,0,0-1.327.833V0h-.994V-5.812h.967l.016.671a1.547,1.547,0,0,1,1.386-.779,1.015,1.015,0,0,1,.44.075Z" transform="translate(332 184)" fill="#fff"/><path d="M8.832-2.783H3.952L3.024,0H.065L5.093-13.508H7.672L12.729,0H9.769ZM4.7-5.038H8.081l-1.7-5.056Zm11.133-5,.083,1.16a3.5,3.5,0,0,1,2.885-1.345,2.913,2.913,0,0,1,2.375.937,4.372,4.372,0,0,1,.8,2.8V0H19.3V-6.42a1.739,1.739,0,0,0-.371-1.239,1.661,1.661,0,0,0-1.234-.385,1.844,1.844,0,0,0-1.7.965V0H13.313V-10.038Zm7.756,4.945a6.049,6.049,0,0,1,1.053-3.739,3.417,3.417,0,0,1,2.881-1.392,3.074,3.074,0,0,1,2.421,1.095V-14.25h2.69V0H30.216l-.13-1.067A3.155,3.155,0,0,1,27.507.186a3.407,3.407,0,0,1-2.844-1.4A6.244,6.244,0,0,1,23.592-5.093Zm2.681.195a3.952,3.952,0,0,0,.492,2.162,1.6,1.6,0,0,0,1.429.751,1.794,1.794,0,0,0,1.753-1.048V-7a1.769,1.769,0,0,0-1.735-1.048Q26.273-8.043,26.273-4.9ZM40.356-7.524a7.284,7.284,0,0,0-.965-.074A1.964,1.964,0,0,0,37.4-6.568V0H34.716V-10.038h2.533l.074,1.2a2.484,2.484,0,0,1,2.236-1.382,2.809,2.809,0,0,1,.835.121Zm.538,2.412a5.953,5.953,0,0,1,.575-2.663,4.211,4.211,0,0,1,1.656-1.809,4.831,4.831,0,0,1,2.51-.64A4.571,4.571,0,0,1,48.952-8.98,4.989,4.989,0,0,1,50.385-5.6l.019.687a5.247,5.247,0,0,1-1.29,3.706,4.482,4.482,0,0,1-3.46,1.4,4.5,4.5,0,0,1-3.465-1.392,5.339,5.339,0,0,1-1.294-3.785Zm2.681.195a3.742,3.742,0,0,0,.538,2.185,1.776,1.776,0,0,0,1.54.756,1.78,1.78,0,0,0,1.521-.747,4.1,4.1,0,0,0,.547-2.389,3.7,3.7,0,0,0-.547-2.171,1.78,1.78,0,0,0-1.54-.77,1.751,1.751,0,0,0-1.521.765A4.164,4.164,0,0,0,43.576-4.917ZM54.885,0h-2.69V-10.038h2.69ZM52.037-12.636a1.32,1.32,0,0,1,.4-.993,1.516,1.516,0,0,1,1.1-.39,1.52,1.52,0,0,1,1.095.39,1.313,1.313,0,0,1,.408.993,1.316,1.316,0,0,1-.413,1,1.523,1.523,0,0,1-1.09.39,1.523,1.523,0,0,1-1.09-.39A1.316,1.316,0,0,1,52.037-12.636Zm4.639,7.542a6.049,6.049,0,0,1,1.053-3.739,3.417,3.417,0,0,1,2.881-1.392A3.074,3.074,0,0,1,63.03-9.129V-14.25h2.69V0H63.3l-.13-1.067A3.155,3.155,0,0,1,60.59.186a3.407,3.407,0,0,1-2.844-1.4A6.244,6.244,0,0,1,56.675-5.093Zm2.681.195a3.952,3.952,0,0,0,.492,2.162,1.6,1.6,0,0,0,1.429.751A1.794,1.794,0,0,0,63.03-3.034V-7A1.769,1.769,0,0,0,61.3-8.043Q59.356-8.043,59.356-4.9ZM80.333-2.783h-4.88L74.525,0H71.565l5.028-13.508h2.579L84.229,0H81.27ZM76.2-5.038h3.377l-1.7-5.056Zm17.7.111a6.02,6.02,0,0,1-1.053,3.716,3.376,3.376,0,0,1-2.844,1.4A3.127,3.127,0,0,1,87.55-.872V3.859H84.869v-13.9h2.486l.093.983a3.151,3.151,0,0,1,2.542-1.169,3.4,3.4,0,0,1,2.885,1.373,6.183,6.183,0,0,1,1.03,3.785Zm-2.681-.195a3.951,3.951,0,0,0-.5-2.162,1.617,1.617,0,0,0-1.443-.761,1.756,1.756,0,0,0-1.735.965v4.11a1.786,1.786,0,0,0,1.753.993Q91.224-1.976,91.224-5.121Zm13.378.195a6.02,6.02,0,0,1-1.053,3.716,3.376,3.376,0,0,1-2.844,1.4A3.127,3.127,0,0,1,98.247-.872V3.859H95.566v-13.9h2.486l.093.983a3.151,3.151,0,0,1,2.542-1.169,3.4,3.4,0,0,1,2.885,1.373,6.183,6.183,0,0,1,1.03,3.785Zm-2.681-.195a3.951,3.951,0,0,0-.5-2.162,1.617,1.617,0,0,0-1.443-.761,1.756,1.756,0,0,0-1.735.965v4.11A1.786,1.786,0,0,0,100-1.976Q101.921-1.976,101.921-5.121Z" transform="translate(330 205)" fill="#fff"/></g></svg>