<?xml version="1.0" encoding="UTF-8"?>
<svg id="offer" viewBox="0 0 72 72" version="1.1" xmlns="http://www.w3.org/2000/svg" xmlns:xlink="http://www.w3.org/1999/xlink">
    <!--  51.2 (57519) -  -->
    <title>offer</title>
    <desc>By RummyCulture.</desc>
    <defs></defs>
    <g id="offer" stroke="none" stroke-width="1" fill="none" fill-rule="evenodd">
        <g transform="translate(3.000000, 13.000000)" fill-rule="nonzero">
            <g id="Group" transform="translate(13.926606, 7.360000)">
                <rect id="Rectangle-path" fill="#0A9B29" transform="translate(26.007143, 19.146230) rotate(78.000088) translate(-26.007143, -19.146230) " x="12.4142306" y="-4.00596862" width="27.185824" height="46.304398"></rect>
                <path d="M5.99449541,38.1493333 L0.0605504587,9.99733333 L45.9577982,0.122666667 L51.8917431,28.2746667 L5.99449541,38.1493333 Z M1.51376147,10.9786667 L6.90275229,36.6773333 L50.3779817,27.2933333 L44.9889908,1.59466667 L1.51376147,10.9786667 Z" id="Shape" fill="#000000"></path>
            </g>
            <polygon id="Shape" fill="#0A7A1F" points="14.7743119 17.848 59.3394495 10.7333333 59.6422018 12.328 62.2458716 33.4266667"></polygon>
            <g id="Group" transform="translate(13.926606, 11.653333)">
                <rect id="Rectangle-path" fill="#0A9B29" transform="translate(24.957688, 17.358897) rotate(84.001491) translate(-24.957688, -17.358897) " x="11.3644465" y="-5.79386295" width="27.1864831" height="46.3055206"></rect>
                <path d="M3.08807339,34.1013333 L0.121100917,5.52 L46.8055046,0.552 L49.7724771,29.1946667 L3.08807339,34.1013333 Z M1.45321101,6.624 L4.17798165,32.752 L48.3798165,28.0293333 L45.6550459,1.90133333 L1.45321101,6.624 Z" id="Shape" fill="#000000"></path>
            </g>
            <polygon id="Shape" fill="#0A7A1F" points="14.7137615 17.664 59.8238532 15.2106667 59.9449541 16.6213333 60.187156 38.5786667"></polygon>
            <g id="Group" transform="translate(13.926606, 16.560000)">
                <rect id="Rectangle-path" fill="#0A9B29" transform="translate(23.721308, 14.567525) rotate(90.000000) translate(-23.721308, -14.567525) " x="10.0671798" y="-8.73914133" width="27.3082569" height="46.6133333"></rect>
                <path d="M47.2293578,29.072 L0,29.072 L0,0.0613333333 L47.2293578,0.0613333333 L47.2293578,29.072 Z M1.33211009,27.7226667 L46.0183486,27.7226667 L46.0183486,1.41066667 L1.33211009,1.41066667 L1.33211009,27.7226667 Z" id="Shape" fill="#000000"></path>
            </g>
            <polygon id="Shape" fill="#000000" points="58.612844 26.5573333 57.4018349 26.5573333 57.4018349 20.792 51.2256881 20.792 51.2256881 19.5653333 58.612844 19.5653333"></polygon>
            <polygon id="Shape" fill="#000000" points="58.612844 42.8106667 51.2256881 42.8106667 51.2256881 41.5226667 57.4018349 41.5226667 57.4018349 35.7573333 58.612844 35.7573333"></polygon>
            <polygon id="Shape" fill="#000000" points="17.8623853 26.5573333 16.6513761 26.5573333 16.6513761 19.5653333 24.0385321 19.5653333 24.0385321 20.792 17.8623853 20.792"></polygon>
            <polygon id="Shape" fill="#000000" points="24.0385321 43.4853333 16.6513761 43.4853333 16.6513761 36.432 17.8623853 36.432 17.8623853 42.1973333 24.0385321 42.1973333"></polygon>
            <g id="Group" transform="translate(30.880734, 23.920000)">
                <ellipse id="Oval" fill="#000000" cx="7.56880734" cy="7.29866667" rx="7.08440367" ry="7.176"></ellipse>
                <path d="M5.5706422,4.10933333 L9.93027523,4.10933333 C9.68807339,4.53866667 9.50642202,4.72266667 9.50642202,4.72266667 L8.3559633,4.72266667 C8.53761468,4.90666667 8.59816514,5.152 8.6587156,5.39733333 L9.93027523,5.39733333 C9.93027523,5.39733333 9.93027523,5.39733333 9.93027523,5.39733333 C9.62752294,5.82666667 9.50642202,6.01066667 9.50642202,6.01066667 L8.71926606,6.01066667 C8.71926606,6.256 8.59816514,6.50133333 8.41651376,6.808 C8.17431193,7.11466667 7.93211009,7.29866667 7.68990826,7.42133333 C7.26605505,7.60533333 6.84220183,7.728 6.47889908,7.728 C6.47889908,7.728 7.3266055,8.832 9.08256881,10.9173333 L7.93211009,10.9173333 C6.23669725,8.89333333 5.38899083,7.912 5.38899083,7.912 L5.38899083,7.29866667 C5.51009174,7.29866667 5.69174312,7.36 5.93394495,7.36 C6.90275229,7.36 7.50825688,7.05333333 7.68990826,6.44 C7.75045872,6.37866667 7.75045872,6.256 7.75045872,6.13333333 L5.14678899,6.13333333 C5.14678899,6.13333333 5.14678899,6.13333333 5.14678899,6.13333333 C5.44954128,5.704 5.5706422,5.52 5.5706422,5.52 L7.6293578,5.52 C7.50825688,5.27466667 7.26605505,5.09066667 6.96330275,4.968 C6.72110092,4.90666667 6.47889908,4.84533333 6.29724771,4.84533333 L5.14678899,4.84533333 C5.44954128,4.29333333 5.5706422,4.10933333 5.5706422,4.10933333 Z" id="Shape" fill="#0A9B29"></path>
            </g>
            <ellipse id="Oval" fill="#000000" cx="50.2568807" cy="31.2186667" rx="1.7559633" ry="1.77866667"></ellipse>
            <ellipse id="Oval" fill="#000000" cx="26.3394495" cy="31.2186667" rx="1.7559633" ry="1.77866667"></ellipse>
            <g id="Group" transform="translate(4.238532, 30.666667)">
                <g transform="translate(0.000000, 6.746667)" id="Shape">
                    <path d="M19.8,7.48266667 L3.75412844,7.48266667 C2.24036697,7.48266667 1.0293578,6.256 1.0293578,4.72266667 L1.0293578,3.61866667 C1.0293578,2.08533333 2.24036697,0.858666667 3.75412844,0.858666667 L19.8,0.858666667 C21.3137615,0.858666667 22.5247706,2.08533333 22.5247706,3.61866667 L22.5247706,4.72266667 C22.5247706,6.256 21.3137615,7.48266667 19.8,7.48266667 Z" fill="#FBC03D"></path>
                    <path d="M19.2550459,8.21866667 L4.29908257,8.21866667 C2.11926606,8.21866667 0.302752294,6.37866667 0.302752294,4.17066667 C0.302752294,1.96266667 2.11926606,0.122666667 4.29908257,0.122666667 L19.2550459,0.122666667 C21.4348624,0.122666667 23.2513761,1.96266667 23.2513761,4.17066667 C23.2513761,6.37866667 21.4348624,8.21866667 19.2550459,8.21866667 Z M4.29908257,1.656 C2.90642202,1.656 1.7559633,2.82133333 1.7559633,4.232 C1.7559633,5.64266667 2.90642202,6.808 4.29908257,6.808 L19.2550459,6.808 C20.6477064,6.808 21.7981651,5.64266667 21.7981651,4.232 C21.7981651,2.82133333 20.6477064,1.656 19.2550459,1.656 L4.29908257,1.656 Z" fill="#000000"></path>
                </g>
                <g id="Shape">
                    <path d="M19.8,7.36 L3.75412844,7.36 C2.24036697,7.36 1.0293578,6.13333333 1.0293578,4.6 L1.0293578,3.496 C1.0293578,1.96266667 2.24036697,0.736 3.75412844,0.736 L19.8,0.736 C21.3137615,0.736 22.5247706,1.96266667 22.5247706,3.496 L22.5247706,4.6 C22.5247706,6.13333333 21.3137615,7.36 19.8,7.36 Z" fill="#FBC03D"></path>
                    <path d="M19.2550459,8.096 L4.29908257,8.096 C2.11926606,8.096 0.302752294,6.256 0.302752294,4.048 C0.302752294,1.84 2.11926606,1.42108547e-14 4.29908257,1.42108547e-14 L19.2550459,1.42108547e-14 C21.4348624,1.42108547e-14 23.2513761,1.84 23.2513761,4.048 C23.2513761,6.256 21.4348624,8.096 19.2550459,8.096 Z M4.29908257,1.53333333 C2.90642202,1.53333333 1.7559633,2.69866667 1.7559633,4.10933333 C1.7559633,5.52 2.90642202,6.68533333 4.29908257,6.68533333 L19.2550459,6.68533333 C20.6477064,6.68533333 21.7981651,5.52 21.7981651,4.10933333 C21.7981651,2.69866667 20.6477064,1.53333333 19.2550459,1.53333333 L4.29908257,1.53333333 Z" fill="#000000"></path>
                </g>
                <path d="M19.3155963,6.624 L4.48073394,6.624 C3.51192661,6.624 2.7853211,6.256 2.17981651,5.39733333 L21.4348624,5.39733333 C21.4348624,5.39733333 20.7688073,6.624 19.3155963,6.624 Z" id="Shape" fill="#EA9E06"></path>
                <path d="M19.3155963,13.4933333 L4.48073394,13.4933333 C3.51192661,13.4933333 2.7853211,13.1253333 2.17981651,12.2666667 L21.4348624,12.2666667 C21.4348624,12.2666667 20.7688073,13.4933333 19.3155963,13.4933333 Z" id="Shape" fill="#EA9E06"></path>
            </g>
            <g id="Group" transform="translate(0.000000, 6.133333)">
                <path d="M15.0165138,27.5386667 L27.066055,15.3333333 C27.5504587,14.8426667 27.853211,14.168 27.853211,13.432 L27.853211,3.92533333 C27.853211,2.45333333 26.6422018,1.22666667 25.1889908,1.22666667 L15.8036697,1.22666667 C15.0770642,1.22666667 14.4110092,1.53333333 13.9266055,2.024 L1.81651376,14.2293333 C1.33211009,14.72 1.0293578,15.3946667 1.0293578,16.1306667 C1.0293578,16.8666667 1.33211009,17.5413333 1.81651376,18.032 L11.2018349,27.5386667 C11.6862385,28.0293333 12.3522936,28.336 13.0788991,28.336 C13.866055,28.336 14.5321101,28.0293333 15.0165138,27.5386667 Z M21.1321101,5.94933333 C21.1321101,4.84533333 22.040367,3.92533333 23.1302752,3.92533333 C24.2201835,3.92533333 25.1284404,4.84533333 25.1284404,5.94933333 C25.1284404,7.05333333 24.2807339,7.97333333 23.1302752,7.97333333 C21.9798165,7.97333333 21.1321101,7.05333333 21.1321101,5.94933333 Z" id="Shape" fill="#D21A3C"></path>
                <path d="M13.0788991,29.0106667 C12.1706422,29.0106667 11.3834862,28.6426667 10.7174312,28.0293333 L1.39266055,18.5226667 C0.787155963,17.9093333 0.423853211,16.9893333 0.423853211,16.1306667 C0.423853211,15.2106667 0.787155963,14.352 1.39266055,13.7386667 L13.4422018,1.53333333 C14.0477064,0.92 14.8954128,0.552 15.8036697,0.552 L25.1889908,0.552 C27.0055046,0.552 28.5192661,2.08533333 28.5192661,3.92533333 L28.5192661,13.432 C28.5192661,14.352 28.1559633,15.1493333 27.5504587,15.824 L15.5009174,27.968 C14.8348624,28.6426667 13.987156,29.0106667 13.0788991,29.0106667 Z M15.8036697,1.90133333 C15.2587156,1.90133333 14.7743119,2.08533333 14.4110092,2.51466667 L2.30091743,14.6586667 C1.93761468,15.0266667 1.69541284,15.5786667 1.69541284,16.0693333 C1.69541284,16.6213333 1.93761468,17.112 2.30091743,17.48 L11.6862385,26.9866667 C12.4733945,27.784 13.7449541,27.7226667 14.5321101,26.9866667 L26.5816514,14.7813333 C26.9449541,14.4133333 27.187156,13.8613333 27.187156,13.3706667 L27.187156,3.92533333 C27.187156,2.82133333 26.2788991,1.90133333 25.1889908,1.90133333 L15.8036697,1.90133333 Z M23.1302752,8.648 C21.6770642,8.648 20.466055,7.42133333 20.466055,5.94933333 C20.466055,4.47733333 21.6770642,3.25066667 23.1302752,3.25066667 C24.5834862,3.25066667 25.7944954,4.47733333 25.7944954,5.94933333 C25.7944954,7.42133333 24.6440367,8.648 23.1302752,8.648 Z M23.1302752,4.6 C22.4036697,4.6 21.7981651,5.21333333 21.7981651,5.94933333 C21.7981651,6.68533333 22.4036697,7.29866667 23.1302752,7.29866667 C23.8568807,7.29866667 24.4623853,6.68533333 24.4623853,5.94933333 C24.4623853,5.21333333 23.8568807,4.6 23.1302752,4.6 Z" id="Shape" fill="#000000"></path>
            </g>
            <path d="M10.4752294,19.1973333 C10.4752294,18.216 11.2623853,17.3573333 12.2917431,17.3573333 C13.2605505,17.3573333 14.1082569,18.1546667 14.1082569,19.1973333 C14.1082569,20.24 13.3211009,21.0373333 12.2917431,21.0373333 C11.2623853,21.0373333 10.4752294,20.24 10.4752294,19.1973333 Z M13.0788991,19.1973333 C13.0788991,18.768 12.7155963,18.4 12.2917431,18.4 C11.8678899,18.4 11.5045872,18.768 11.5045872,19.1973333 C11.5045872,19.6266667 11.8678899,19.9946667 12.2917431,19.9946667 C12.7155963,19.9946667 13.0788991,19.6266667 13.0788991,19.1973333 Z M11.6862385,24.7786667 L15.6220183,17.6026667 C15.6825688,17.48 15.7431193,17.48 15.8642202,17.48 L16.8330275,17.48 C17.0146789,17.48 17.0752294,17.6026667 16.9541284,17.7253333 L13.0183486,24.9013333 C12.9577982,25.024 12.8972477,25.024 12.7761468,25.024 L11.8073394,25.024 C11.6862385,25.024 11.6256881,24.9013333 11.6862385,24.7786667 Z M14.7743119,23.3066667 C14.7743119,22.3253333 15.5614679,21.4666667 16.5908257,21.4666667 C17.559633,21.4666667 18.4073394,22.264 18.4073394,23.3066667 C18.4073394,24.3493333 17.6201835,25.1466667 16.5908257,25.1466667 C15.5614679,25.1466667 14.7743119,24.288 14.7743119,23.3066667 Z M17.3174312,23.3066667 C17.3174312,22.8773333 16.9541284,22.5093333 16.5302752,22.5093333 C16.106422,22.5093333 15.7431193,22.8773333 15.7431193,23.3066667 C15.7431193,23.736 16.106422,24.104 16.5302752,24.104 C16.9541284,24.104 17.3174312,23.736 17.3174312,23.3066667 Z" id="Shape" fill="#000000"></path>
            <ellipse id="Oval" fill="#D21A3C" cx="64.6678899" cy="3.61866667" rx="1" ry="1"></ellipse>
            <ellipse id="Oval" fill="#D21A3C" cx="54.3137615" cy="5.704" rx="1" ry="1"></ellipse>
            <path d="M60.187156,5.82666667 C59.4605505,4.66133333 58.5522936,3.74133333 57.5229358,3.128 C58.6733945,2.51466667 59.5211009,1.59466667 60.187156,0.429333333 C60.7321101,1.59466667 61.640367,2.45333333 62.8513761,3.128 C61.7009174,3.74133333 60.853211,4.66133333 60.187156,5.82666667 Z" id="Shape" fill="#000000"></path>
            <path d="M63.2752294,8.464 C62.8513761,7.78933333 62.3669725,7.23733333 61.7614679,6.93066667 C62.4275229,6.56266667 62.9119266,6.072 63.2752294,5.39733333 C63.5779817,6.072 64.1229358,6.56266667 64.7889908,6.93066667 C64.1834862,7.23733333 63.6990826,7.78933333 63.2752294,8.464 Z" id="Shape" fill="#000000"></path>
        </g>
    </g>
</svg>
